<?xml version="1.0" encoding="UTF-8"?>
<svg width="120" height="40" viewBox="0 0 120 40" fill="none" xmlns="http://www.w3.org/2000/svg">
  <path d="M20.5 8C13.6 8 8 13.6 8 20.5C8 27.4 13.6 33 20.5 33C27.4 33 33 27.4 33 20.5C33 13.6 27.4 8 20.5 8ZM20.5 30C15.3 30 11 25.7 11 20.5C11 15.3 15.3 11 20.5 11C25.7 11 30 15.3 30 20.5C30 25.7 25.7 30 20.5 30Z" fill="white"/>
  <path d="M45 15V26H48V15H45ZM45 12H48V9H45V12Z" fill="white"/>
  <path d="M52 26H55V20.5C55 18.5 56.5 17 58.5 17C60.5 17 62 18.5 62 20.5V26H65V20.5C65 16.9 62.1 14 58.5 14C54.9 14 52 16.9 52 20.5V26Z" fill="white"/>
  <path d="M69 26H72V20.5C72 18.5 73.5 17 75.5 17C77.5 17 79 18.5 79 20.5V26H82V20.5C82 16.9 79.1 14 75.5 14C71.9 14 69 16.9 69 20.5V26Z" fill="white"/>
  <path d="M86 26H89V9H86V26Z" fill="white"/>
  <path d="M93 20.5C93 16.9 95.9 14 99.5 14C103.1 14 106 16.9 106 20.5C106 24.1 103.1 27 99.5 27C95.9 27 93 24.1 93 20.5ZM96 20.5C96 22.5 97.5 24 99.5 24C101.5 24 103 22.5 103 20.5C103 18.5 101.5 17 99.5 17C97.5 17 96 18.5 96 20.5Z" fill="white"/>
</svg> 