<?xml version="1.0" encoding="UTF-8"?>
<svg version="1.1" xmlns="http://www.w3.org/2000/svg" width="500" height="500">
<path d="M0 0 C6.9807906 5.86442935 11.30288264 12.69813997 12.27734375 21.90625 C12.48659377 29.83045711 11.92147289 35.23565239 6.5546875 41.30859375 C-1.24621151 48.18081431 -6.1272435 49.9113293 -16.40234375 50.03515625 C-17.39409103 50.0545224 -18.38583832 50.07388855 -19.40763855 50.09384155 C-22.5659432 50.15347828 -25.7242846 50.1999593 -28.8828125 50.24609375 C-31.02801042 50.28428815 -33.17319325 50.32334073 -35.31835938 50.36328125 C-40.56887612 50.45916667 -45.81948426 50.54426053 -51.0703125 50.62109375 C-50.41298107 54.48211815 -49.50284671 56.5539854 -47.0703125 59.62109375 C-47.0703125 60.28109375 -47.0703125 60.94109375 -47.0703125 61.62109375 C-46.4103125 61.62109375 -45.7503125 61.62109375 -45.0703125 61.62109375 C-45.0703125 62.28109375 -45.0703125 62.94109375 -45.0703125 63.62109375 C-44.4103125 63.62109375 -43.7503125 63.62109375 -43.0703125 63.62109375 C-43.0703125 64.28109375 -43.0703125 64.94109375 -43.0703125 65.62109375 C-42.2453125 65.88921875 -41.4203125 66.15734375 -40.5703125 66.43359375 C-38.77515073 67.04266649 -36.97858125 67.66127517 -35.2421875 68.421875 C-26.21879087 72.29166502 -18.76301768 70.91695753 -9.734375 67.59375 C-7.51666639 66.78405873 -5.36975971 66.13874182 -3.0703125 65.62109375 C-3.0703125 64.96109375 -3.0703125 64.30109375 -3.0703125 63.62109375 C-0.38952094 61.8682685 0.79857389 61.60798239 4.0546875 61.93359375 C6.9296875 62.62109375 6.9296875 62.62109375 8.9296875 63.62109375 C9.49841979 68.02651214 9.85832472 71.94557095 7.65234375 75.92578125 C1.30687328 83.55185687 -6.85850139 86.69176768 -16.54296875 88.140625 C-30.35017677 89.26743741 -41.316481 87.03320382 -53.0703125 79.62109375 C-53.0703125 78.96109375 -53.0703125 78.30109375 -53.0703125 77.62109375 C-53.7303125 77.62109375 -54.3903125 77.62109375 -55.0703125 77.62109375 C-55.0703125 76.96109375 -55.0703125 76.30109375 -55.0703125 75.62109375 C-55.6478125 75.39421875 -56.2253125 75.16734375 -56.8203125 74.93359375 C-59.73427059 73.23378486 -61.09931899 71.36853924 -63.0703125 68.62109375 C-63.47378906 68.1003125 -63.87726563 67.57953125 -64.29296875 67.04296875 C-70.95596036 57.66995303 -73.33407346 44.91693247 -72.0703125 33.62109375 C-69.70602746 19.78709534 -62.92519146 8.15915732 -51.9296875 -0.4453125 C-36.05778377 -11.17836215 -15.60666555 -11.46203825 0 0 Z M-37.0703125 11.62109375 C-38.07964844 12.09675781 -38.07964844 12.09675781 -39.109375 12.58203125 C-46.50511431 16.60828316 -51.39194455 23.71600775 -54.0703125 31.62109375 C-54.0703125 32.61109375 -54.0703125 33.60109375 -54.0703125 34.62109375 C-48.32284801 34.67060474 -42.57550823 34.70686605 -36.82788086 34.73095703 C-34.87343177 34.74100228 -32.91899766 34.75464092 -30.96459961 34.77197266 C-28.15214333 34.79628578 -25.33988611 34.80759172 -22.52734375 34.81640625 C-21.65632523 34.82672882 -20.7853067 34.83705139 -19.88789368 34.84768677 C-14.6009495 34.84866018 -10.31550566 34.711446 -6.2578125 30.93359375 C-4.51960519 27.54866372 -4.5596 25.38759844 -5.0703125 21.62109375 C-8.07025082 15.49301462 -12.79003483 12.01695659 -19.0078125 9.37109375 C-25.78832194 7.71056082 -30.91395285 8.71982081 -37.0703125 11.62109375 Z " fill="#E5F2EF" transform="translate(245.0703125,217.37890625)"/>
<path d="M0 0 C2.19905522 1.40189771 4.29567216 2.74144004 6.25 4.46875 C6.25 5.12875 6.25 5.78875 6.25 6.46875 C6.91 6.46875 7.57 6.46875 8.25 6.46875 C9.90625 8.69921875 9.90625 8.69921875 11.75 11.65625 C12.3584375 12.61917969 12.966875 13.58210938 13.59375 14.57421875 C19.41539153 24.74836114 19.56062761 36.54610123 19.55078125 48.0078125 C19.55506638 49.1364975 19.5593515 50.2651825 19.56376648 51.42807007 C19.56945758 53.78586154 19.57004912 56.14367056 19.56567383 58.50146484 C19.56247702 62.11976258 19.58616442 65.73726955 19.61132812 69.35546875 C19.61359789 71.65624897 19.61430612 73.95703139 19.61328125 76.2578125 C19.622491 77.33898346 19.63170074 78.42015442 19.64118958 79.53408813 C19.63496078 80.53298065 19.62873199 81.53187317 19.62231445 82.56103516 C19.62294388 83.43893707 19.6235733 84.31683899 19.6242218 85.22134399 C19.16675813 87.96866283 18.49637573 88.85582522 16.25 90.46875 C13.65356536 90.7406739 11.33709951 90.84284761 8.75 90.78125 C7.73486328 90.78608398 7.73486328 90.78608398 6.69921875 90.79101562 C3.01526986 90.75105168 1.38792046 90.56069697 -1.75 88.46875 C-2.14199829 85.98405457 -2.14199829 85.98405457 -2.16650391 82.81323242 C-2.18307037 81.62827682 -2.19963684 80.44332123 -2.21670532 79.22245789 C-2.21995819 77.93603897 -2.22321106 76.64962006 -2.2265625 75.32421875 C-2.2503659 73.31190805 -2.27417341 71.29959739 -2.2982235 69.28728962 C-2.32825935 66.46128312 -2.34464904 63.6352554 -2.36126709 60.80914307 C-2.39701701 55.20466788 -2.45828461 49.60042067 -2.51975632 43.99617958 C-2.53877318 42.04145734 -2.55004036 40.08666467 -2.56118774 38.13188171 C-2.57144989 36.93746964 -2.58171204 35.74305756 -2.59228516 34.51245117 C-2.59878082 33.46369308 -2.60527649 32.414935 -2.61196899 31.33439636 C-2.74318231 28.61029122 -3.13723042 26.12198008 -3.75 23.46875 C-4.41 23.46875 -5.07 23.46875 -5.75 23.46875 C-6.471875 22.540625 -7.19375 21.6125 -7.9375 20.65625 C-11.2486439 16.58469805 -14.8222355 14.86799061 -20.0703125 14.15234375 C-27.88202619 13.77277772 -34.35180302 16.13248958 -40.75 20.53125 C-45.00142983 24.64982265 -45.6724485 28.2372045 -45.81097412 34.00952148 C-45.81631383 37.15296409 -45.78346995 40.29432783 -45.7421875 43.4375 C-45.72467548 45.80598533 -45.70776679 48.17447519 -45.69140625 50.54296875 C-45.66042112 54.26266031 -45.6248338 57.98212493 -45.57861328 61.70166016 C-45.53625531 65.30113561 -45.5128322 68.90034333 -45.4921875 72.5 C-45.47356659 73.60952026 -45.45494568 74.71904053 -45.4357605 75.86218262 C-45.41679195 81.580178 -45.5659611 85.63663831 -48.75 90.46875 C-51.20840605 90.49566685 -53.66651882 90.51554802 -56.125 90.53125 C-56.82367188 90.53962891 -57.52234375 90.54800781 -58.2421875 90.55664062 C-63.5234375 90.58203125 -63.5234375 90.58203125 -65.75 89.46875 C-66.71011848 83.98661082 -66.88565023 78.63343761 -66.83520508 73.08081055 C-66.83202271 72.28466843 -66.82884033 71.48852631 -66.82556152 70.66825867 C-66.81307989 68.06391458 -66.79219644 65.45974306 -66.76953125 62.85546875 C-66.7590957 61.51508513 -66.7590957 61.51508513 -66.74844933 60.14762306 C-66.71121536 55.43028897 -66.66727424 50.71307182 -66.61791992 45.99584961 C-66.56830301 41.12226461 -66.54230103 36.24884482 -66.52148914 31.3750639 C-66.50116331 27.62346922 -66.46330997 23.87219892 -66.4206295 20.12079811 C-66.4032709 18.32307892 -66.39259031 16.5252825 -66.38868141 14.72748375 C-66.38162649 12.22096466 -66.34978496 9.71593066 -66.31176758 7.2097168 C-66.3152269 6.46631042 -66.31868622 5.72290405 -66.32225037 4.95697021 C-66.2483657 1.67346316 -66.19120382 -0.07168846 -63.86723328 -2.49235535 C-61.32558002 -3.73950653 -59.57341605 -3.89970184 -56.75 -3.84375 C-55.904375 -3.83988281 -55.05875 -3.83601562 -54.1875 -3.83203125 C-51.5851679 -3.51091014 -49.93497836 -2.97313887 -47.75 -1.53125 C-47 1.09375 -47 1.09375 -46.75 3.46875 C-45.8425 2.72625 -44.935 1.98375 -44 1.21875 C-30.60245623 -8.22409711 -14.00984909 -7.8009387 0 0 Z " fill="#E8F3F0" transform="translate(331.75,215.53125)"/>
<path d="M0 0 C2.76055681 1.49637659 3.92188822 2.51781093 6 5 C6.9783416 8.48534195 7.24366954 10.84256968 6.5 14.375 C4.06709529 17.01064677 1.48260815 16.74717262 -2 17 C-5.2890625 16.22265625 -5.2890625 16.22265625 -8.625 15.0625 C-16.79220949 12.55487065 -24.4988382 11.5746321 -32.75 14.1875 C-35.11743637 15.84343803 -35.11743637 15.84343803 -36.1875 18.3125 C-35.91172788 22.26523373 -33.85309117 24.4727695 -31 27 C-27.96588893 28.97806411 -27.96588893 28.97806411 -25 30 C-24.01 29.505 -24.01 29.505 -23 29 C-23 28.34 -23 27.68 -23 27 C-23.66 27 -24.32 27 -25 27 C-25.20086443 23.28400809 -25.1519437 22.22791555 -23 19 C-19.57646906 18.6265239 -17.08939046 18.42126132 -14 20.0625 C-12.41504406 23.13335213 -13.31963293 25.72186775 -14 29 C-14.66 29 -15.32 29 -16 29 C-16.33 31.31 -16.66 33.62 -17 36 C-16.30519531 36.10183594 -15.61039063 36.20367187 -14.89453125 36.30859375 C-11.50947448 37.11717006 -8.77712981 38.46675713 -5.6875 40.0625 C-4.08455078 40.88427734 -4.08455078 40.88427734 -2.44921875 41.72265625 C-1.64097656 42.14417969 -0.83273438 42.56570313 0 43 C0 43.66 0 44.32 0 45 C0.5775 45.226875 1.155 45.45375 1.75 45.6875 C5.75665282 48.02471415 7.60331724 50.96862483 9.25 55.25 C10.74877371 62.74386856 10.48382147 68.17170992 7 75 C6.67 75.66 6.34 76.32 6 77 C5.34 77 4.68 77 4 77 C4 77.66 4 78.32 4 79 C-1.18082051 82.34594658 -4.84777564 83.56826496 -11 84 C-11.66 85.65 -12.32 87.3 -13 89 C-20.29113924 90.33670886 -20.29113924 90.33670886 -23.5 88.8125 C-25 87 -25 87 -25 83 C-25.7425 83.04125 -26.485 83.0825 -27.25 83.125 C-30.08758952 82.99601866 -31.58773938 82.42948778 -34 81 C-34 80.34 -34 79.68 -34 79 C-34.66 79 -35.32 79 -36 79 C-37.33743169 72.79918033 -37.33743169 72.79918033 -35.8125 69.1875 C-33.91152834 66.89322386 -32.62516234 66.27280598 -30 65 C-27.22005898 62.18922784 -26.07512203 60.64079092 -25.609375 56.66796875 C-25.65578125 55.51941406 -25.7021875 54.37085938 -25.75 53.1875 C-25.80414063 51.44533203 -25.80414063 51.44533203 -25.859375 49.66796875 C-25.90578125 48.78753906 -25.9521875 47.90710938 -26 47 C-27.13179687 46.43410156 -28.26359375 45.86820312 -29.4296875 45.28515625 C-34.28645833 42.85677083 -39.14322917 40.42838542 -44 38 C-44 37.34 -44 36.68 -44 36 C-44.99 35.67 -45.98 35.34 -47 35 C-48.3515625 33.0390625 -48.3515625 33.0390625 -49.625 30.625 C-50.05039063 29.83351562 -50.47578125 29.04203125 -50.9140625 28.2265625 C-53.49479095 22.93514086 -54.05839001 17.51946559 -52.3515625 11.84375 C-49.44504436 5.38482081 -44.70662128 1.02677532 -38.25 -1.8125 C-26.26900262 -6.19017212 -11.60095024 -5.29044825 0 0 Z M-17 51 C-17 53.97 -17 56.94 -17 60 C-16.05125 60.226875 -15.1025 60.45375 -14.125 60.6875 C-11 62 -11 62 -9.625 64.625 C-9.41875 65.40875 -9.2125 66.1925 -9 67 C-7.68 66.67 -6.36 66.34 -5 66 C-4.05392193 63.25038489 -4.05392193 63.25038489 -4 60 C-7.0406962 56.13002301 -10.797383 53.5215702 -15 51 C-15.66 51 -16.32 51 -17 51 Z " fill="#C5D6D4" transform="translate(159,214)"/>
<path d="M0 0 C2.5625 1.375 2.5625 1.375 4 4 C4.60025937 7.33013459 4.87102995 10.62098471 5 14 C5.68707031 14.10957031 6.37414062 14.21914062 7.08203125 14.33203125 C7.98308594 14.49058594 8.88414062 14.64914063 9.8125 14.8125 C11.15248047 15.03873047 11.15248047 15.03873047 12.51953125 15.26953125 C15.24098129 16.07096614 16.30719853 16.75367932 18 19 C19.07559888 23.07191005 19.27232646 25.2919512 17.75 29.25 C14.92 33.69714286 14.92 33.69714286 13 35 C9.3125 35.6875 9.3125 35.6875 6 36 C5.34 39.3 4.68 42.6 4 46 C3.34 46 2.68 46 2 46 C2.27617533 47.94074861 2.27617533 47.94074861 3 50 C3.99 50.66 4.98 51.32 6 52 C6.38768005 54.72593689 6.38768005 54.72593689 6.40405273 58.23803711 C6.41673691 59.5495726 6.42942108 60.86110809 6.44248962 62.21238708 C6.44043818 63.65070757 6.43745016 65.08902697 6.43359375 66.52734375 C6.43815268 67.99703718 6.44345738 69.46672846 6.44947815 70.93641663 C6.45842245 74.01914114 6.45597169 77.10160679 6.44604492 80.18432617 C6.43455794 84.13696648 6.45475463 88.08871308 6.48396206 92.04123592 C6.50230072 95.07729276 6.50203629 98.11313455 6.49632454 101.14923286 C6.49617101 102.60650447 6.50224144 104.06379037 6.51461601 105.52100945 C6.52947581 107.5581461 6.51624499 109.59542937 6.50170898 111.63256836 C6.50154282 112.79235703 6.50137665 113.95214569 6.50120544 115.14707947 C6 118 6 118 4.19593811 119.89112854 C0.91986192 121.54543171 -2.14876448 121.10690387 -5.6875 120.75 C-6.37650391 120.69714844 -7.06550781 120.64429688 -7.77539062 120.58984375 C-12.83828712 120.16171288 -12.83828712 120.16171288 -14 119 C-14.10434366 117.14439035 -14.13854627 115.28479842 -14.14526367 113.42626953 C-14.15164352 112.23478302 -14.15802338 111.04329651 -14.16459656 109.81570435 C-14.16570938 108.51785004 -14.1668222 107.21999573 -14.16796875 105.8828125 C-14.1711801 104.54621342 -14.17454407 103.20961469 -14.17805481 101.87301636 C-14.18405278 99.0668659 -14.18589408 96.26074626 -14.18530273 93.45458984 C-14.18520119 89.85753426 -14.19884209 86.26067642 -14.21607494 82.66366768 C-14.22719165 79.90130708 -14.22922203 77.13899429 -14.22869301 74.37661362 C-14.23044888 72.4051238 -14.24129398 70.43364891 -14.25224304 68.46218872 C-14.24916641 67.26439789 -14.24608978 66.06660706 -14.24291992 64.83251953 C-14.24434494 63.77630402 -14.24576996 62.7200885 -14.24723816 61.63186646 C-14 59 -14 59 -12 56 C-11.34 56 -10.68 56 -10 56 C-10 55.34 -10 54.68 -10 54 C-9.01 53.34 -8.02 52.68 -7 52 C-7.56589844 51.67386719 -8.13179688 51.34773438 -8.71484375 51.01171875 C-9.44832031 50.57472656 -10.18179687 50.13773438 -10.9375 49.6875 C-11.66839844 49.25824219 -12.39929688 48.82898438 -13.15234375 48.38671875 C-15 47 -15 47 -16 44 C-16.06740865 42.43881572 -16.08514456 40.8749748 -16.0625 39.3125 C-16.05347656 38.50425781 -16.04445313 37.69601563 -16.03515625 36.86328125 C-16.02355469 36.24839844 -16.01195312 35.63351563 -16 35 C-17.19625 35.0825 -18.3925 35.165 -19.625 35.25 C-22.80937466 35.21600312 -24.42300676 34.83381877 -27.5 33.625 C-30.29512138 30.69012255 -30.45112214 29.95156807 -30.625 26.0625 C-30.36085346 21.58521612 -29.3965315 19.09683754 -26 16 C-22.78548731 14.39274365 -19.56387464 14.94251815 -16 15 C-16.20625 14.29875 -16.4125 13.5975 -16.625 12.875 C-17.09737488 9.25345922 -16.54547384 7.30169412 -15 4 C-10.87771907 -0.8952086 -5.98513429 -0.95034227 0 0 Z " fill="#65DBD7" transform="translate(388,186)"/>
<path d="M0 0 C2.19905522 1.40189771 4.29567216 2.74144004 6.25 4.46875 C6.25 5.12875 6.25 5.78875 6.25 6.46875 C6.91 6.46875 7.57 6.46875 8.25 6.46875 C9.90625 8.69921875 9.90625 8.69921875 11.75 11.65625 C12.3584375 12.61917969 12.966875 13.58210938 13.59375 14.57421875 C19.4476702 24.80477269 19.55639005 36.59573091 19.4453125 48.11328125 C19.4424826 49.24908127 19.43965271 50.38488129 19.43673706 51.55509949 C19.42567328 55.13059695 19.40059563 58.70583014 19.375 62.28125 C19.36495233 64.72720989 19.35582963 67.17317376 19.34765625 69.61914062 C19.32577942 75.56909835 19.29244286 81.51890529 19.25 87.46875 C18.26 87.96375 18.26 87.96375 17.25 88.46875 C17.25 87.80875 17.25 87.14875 17.25 86.46875 C15.64318359 86.48615234 15.64318359 86.48615234 14.00390625 86.50390625 C12.60677257 86.51328299 11.20963701 86.52238331 9.8125 86.53125 C9.10544922 86.53962891 8.39839844 86.54800781 7.66992188 86.55664062 C5.86306441 86.56528588 4.05612397 86.52095011 2.25 86.46875 C0.53348954 84.75223954 1.10740146 82.48558601 1.09228516 80.14208984 C1.08202301 79.0035556 1.07176086 77.86502136 1.06118774 76.69198608 C1.05388641 75.45042755 1.04658508 74.20886902 1.0390625 72.9296875 C1.01098348 70.32160842 0.98231896 67.71353559 0.953125 65.10546875 C0.91075294 60.97773646 0.87400456 56.8500412 0.84863281 52.72216797 C0.82355582 48.74946121 0.77509972 44.77717831 0.7265625 40.8046875 C0.72330963 39.57527435 0.72005676 38.34586121 0.71670532 37.07919312 C0.60159392 29.03671952 -0.13571963 22.99766944 -5.5625 16.71875 C-6.02269531 16.16703125 -6.48289062 15.6153125 -6.95703125 15.046875 C-12.66457655 10.02324035 -18.14686153 10.09282444 -25.39453125 10.22265625 C-28.12370401 10.42281677 -30.30290508 10.74010461 -32.875 11.59375 C-35.75 12.46875 -35.75 12.46875 -37.9375 11.71875 C-38.535625 11.30625 -39.13375 10.89375 -39.75 10.46875 C-40.4925 10.0975 -41.235 9.72625 -42 9.34375 C-42.86625 8.910625 -42.86625 8.910625 -43.75 8.46875 C-42.1 6.81875 -40.45 5.16875 -38.75 3.46875 C-39.08 2.47875 -39.41 1.48875 -39.75 0.46875 C-38.76 0.13875 -37.77 -0.19125 -36.75 -0.53125 C-36.75 -1.19125 -36.75 -1.85125 -36.75 -2.53125 C-24.16873092 -7.64905437 -11.86874686 -6.60873405 0 0 Z " fill="#ECF5F3" transform="translate(331.75,215.53125)"/>
<path d="M0 0 C0.99 0.66 1.98 1.32 3 2 C3.38768005 4.72593689 3.38768005 4.72593689 3.40405273 8.23803711 C3.41673691 9.5495726 3.42942108 10.86110809 3.44248962 12.21238708 C3.44043818 13.65070757 3.43745016 15.08902697 3.43359375 16.52734375 C3.43815268 17.99703718 3.44345738 19.46672846 3.44947815 20.93641663 C3.45842245 24.01914114 3.45597169 27.10160679 3.44604492 30.18432617 C3.43455794 34.13696648 3.45475463 38.08871308 3.48396206 42.04123592 C3.50230072 45.07729276 3.50203629 48.11313455 3.49632454 51.14923286 C3.49617101 52.60650447 3.50224144 54.06379037 3.51461601 55.52100945 C3.52947581 57.5581461 3.51624499 59.59542937 3.50170898 61.63256836 C3.50154282 62.79235703 3.50137665 63.95214569 3.50120544 65.14707947 C3 68 3 68 1.19593811 69.89112854 C-2.08013808 71.54543171 -5.14876448 71.10690387 -8.6875 70.75 C-9.37650391 70.69714844 -10.06550781 70.64429688 -10.77539062 70.58984375 C-15.83828712 70.16171288 -15.83828712 70.16171288 -17 69 C-17.10434366 67.14439035 -17.13854627 65.28479842 -17.14526367 63.42626953 C-17.15164352 62.23478302 -17.15802338 61.04329651 -17.16459656 59.81570435 C-17.16570938 58.51785004 -17.1668222 57.21999573 -17.16796875 55.8828125 C-17.1711801 54.54621342 -17.17454407 53.20961469 -17.17805481 51.87301636 C-17.18405278 49.0668659 -17.18589408 46.26074626 -17.18530273 43.45458984 C-17.18520119 39.85753426 -17.19884209 36.26067642 -17.21607494 32.66366768 C-17.22719165 29.90130708 -17.22922203 27.13899429 -17.22869301 24.37661362 C-17.23044888 22.4051238 -17.24129398 20.43364891 -17.25224304 18.46218872 C-17.24916641 17.26439789 -17.24608978 16.06660706 -17.24291992 14.83251953 C-17.24434494 13.77630402 -17.24576996 12.7200885 -17.24723816 11.63186646 C-17 9 -17 9 -15 6 C-14.34 6 -13.68 6 -13 6 C-13 5.34 -13 4.68 -13 4 C-4.43556249 -0.76038214 -4.43556249 -0.76038214 0 0 Z " fill="#EBF4F2" transform="translate(391,236)"/>
<path d="M0 0 C3.0249354 2.1494835 3.91007083 3.8668832 4.91015625 7.4296875 C4.91015625 12.70052083 4.91015625 12.70052083 2.91015625 14.8671875 C-2.31638004 16.05503666 -5.69427249 15.67571755 -10.71484375 13.9296875 C-18.88205324 11.42205815 -26.58868195 10.4418196 -34.83984375 13.0546875 C-37.20728012 14.71062553 -37.20728012 14.71062553 -38.27734375 17.1796875 C-38.00234398 21.12135082 -35.95367162 23.35861929 -33.08984375 25.8671875 C-31.12105052 26.92730693 -29.12548508 27.94189599 -27.08984375 28.8671875 C-25.76755186 31.51177129 -25.99307181 33.54480051 -26.02734375 36.4921875 C-26.03636719 37.49507812 -26.04539063 38.49796875 -26.0546875 39.53125 C-26.06628906 40.30210937 -26.07789063 41.07296875 -26.08984375 41.8671875 C-35.4053189 39.02079231 -43.93162234 35.83395196 -50.33984375 28.1796875 C-52.79848005 23.52584022 -53.08984375 19.06800544 -53.08984375 13.8671875 C-53.23421875 13.0009375 -53.37859375 12.1346875 -53.52734375 11.2421875 C-52.8601756 6.09546179 -49.77102332 3.34771577 -46.08984375 -0.1328125 C-33.92355369 -9.25753005 -12.54892035 -6.80221851 0 0 Z " fill="#E1EEED" transform="translate(161.08984375,215.1328125)"/>
<path d="M0 0 C2.21875 1.48828125 2.21875 1.48828125 3.21875 3.48828125 C3.21875 5.48828125 3.21875 5.48828125 1.78125 7.23828125 C1.0078125 7.85703125 1.0078125 7.85703125 0.21875 8.48828125 C-0.77125 7.16828125 -1.76125 5.84828125 -2.78125 4.48828125 C-3.44125 7.45828125 -4.10125 10.42828125 -4.78125 13.48828125 C-5.27625 12.49828125 -5.27625 12.49828125 -5.78125 11.48828125 C-7.10125 11.48828125 -8.42125 11.48828125 -9.78125 11.48828125 C-9.78125 10.82828125 -9.78125 10.16828125 -9.78125 9.48828125 C-22.00954644 8.99544525 -22.00954644 8.99544525 -33.765625 12.02734375 C-36.44149581 12.6392677 -37.49103708 11.90057922 -39.78125 10.48828125 C-40.52375 10.11703125 -41.26625 9.74578125 -42.03125 9.36328125 C-42.8975 8.93015625 -42.8975 8.93015625 -43.78125 8.48828125 C-42.13125 6.83828125 -40.48125 5.18828125 -38.78125 3.48828125 C-39.11125 2.49828125 -39.44125 1.50828125 -39.78125 0.48828125 C-38.79125 0.15828125 -37.80125 -0.17171875 -36.78125 -0.51171875 C-36.78125 -1.17171875 -36.78125 -1.83171875 -36.78125 -2.51171875 C-24.17125186 -7.64120952 -11.9433267 -6.49166774 0 0 Z " fill="#EFF4F3" transform="translate(331.78125,215.51171875)"/>
<path d="M0 0 C6.17540289 2.37904865 12.1239596 4.95316424 18 8 C18 8.66 18 9.32 18 10 C18.5775 10.226875 19.155 10.45375 19.75 10.6875 C23.75665282 13.02471415 25.60331724 15.96862483 27.25 20.25 C28.48975745 26.44878723 28.97927856 32.22764779 26 38 C25.01 38 24.02 38 23 38 C22.690625 38.928125 22.690625 38.928125 22.375 39.875 C20.45224112 42.84653645 18.33405473 43.13024659 15 44 C15 43.34 15 42.68 15 42 C15.99 42 16.98 42 18 42 C18.33 40.35 18.66 38.7 19 37 C18.34 36.67 17.68 36.34 17 36 C15.96854629 34.69084721 14.96457834 33.35917857 14 32 C11.525 32.495 11.525 32.495 9 33 C10.8125 31 10.8125 31 13 29 C13.99 29 14.98 29 16 29 C15.25045416 23.75317915 13.90102819 21.53263243 9.6875 18.25 C7.23797093 16.4700366 4.96672141 14.98420439 2.2265625 13.68359375 C0 12 0 12 -0.48828125 9.08203125 C-0.43027344 8.00308594 -0.37226563 6.92414063 -0.3125 5.8125 C-0.26738281 4.72582031 -0.22226563 3.63914063 -0.17578125 2.51953125 C-0.11777344 1.68808594 -0.05976563 0.85664063 0 0 Z " fill="#C4D3D2" transform="translate(141,249)"/>
<path d="M0 0 C0.99 1.32 1.98 2.64 3 4 C2.67 4.66 2.34 5.32 2 6 C2.52673096 11.83535275 3.51781269 16.97752421 8 21 C14.24211449 25.09638763 21.18341915 28.00580094 28 31 C27.90460938 30.15695312 27.80921875 29.31390625 27.7109375 28.4453125 C27.60007813 27.34960938 27.48921875 26.25390625 27.375 25.125 C27.25898438 24.03445312 27.14296875 22.94390625 27.0234375 21.8203125 C27.01570313 20.88960937 27.00796875 19.95890625 27 19 C27.66 18.34 28.32 17.68 29 17 C29 16.34 29 15.68 29 15 C28.34 15 27.68 15 27 15 C26.79913557 11.28400809 26.8480563 10.22791555 29 7 C32.42353094 6.6265239 34.91060954 6.42126132 38 8.0625 C39.58495594 11.13335213 38.68036707 13.72186775 38 17 C37.34 17 36.68 17 36 17 C35.34 22.94 34.68 28.88 34 35 C35.65 35.66 37.3 36.32 39 37 C40.60205035 38.1117338 42.16581107 39.28058204 43.6875 40.5 C44.45449219 41.1084375 45.22148437 41.716875 46.01171875 42.34375 C48 44 48 44 50 46 C50.125 49.125 50.125 49.125 50 52 C49.34 52 48.68 52 48 52 C47.773125 50.88625 47.54625 49.7725 47.3125 48.625 C46.42390529 44.90122027 46.42390529 44.90122027 43.75 43.8125 C42.8425 43.544375 41.935 43.27625 41 43 C38.97681922 41.70211044 36.97133986 40.37535339 35 39 C35 41.31 35 43.62 35 46 C34.67 45.34 34.34 44.68 34 44 C30.97065509 43.34227572 30.97065509 43.34227572 28 43 C28 44.65 28 46.3 28 48 C27.67 48 27.34 48 27 48 C27.1134375 47.154375 27.226875 46.30875 27.34375 45.4375 C27.52489492 41.45231168 27.40299392 38.75847912 26 35 C21.49219733 31.06278769 15.52047048 29.09742529 10 27 C9.34 26.67 8.68 26.34 8 26 C8 25.34 8 24.68 8 24 C7.01 23.67 6.02 23.34 5 23 C3.6484375 21.0390625 3.6484375 21.0390625 2.375 18.625 C1.94960937 17.83351562 1.52421875 17.04203125 1.0859375 16.2265625 C-0.57004732 12.83119794 -1.13730559 10.17224506 -1.125 6.4375 C-1.12757812 5.65246094 -1.13015625 4.86742187 -1.1328125 4.05859375 C-1 2 -1 2 0 0 Z " fill="#8298A5" transform="translate(107,226)"/>
<path d="M0 0 C5.42127116 4.12387293 9.60757227 9.21046385 11.4375 15.875 C11.90158613 20.3302553 11.92601027 24.76941794 11.94921875 29.24609375 C11.96716995 30.52355972 11.98512115 31.8010257 12.00361633 33.11720276 C12.04846632 36.49228331 12.08084057 39.86700532 12.10705566 43.24224854 C12.13698167 46.69483415 12.18347018 50.14719378 12.22851562 53.59960938 C12.3133575 60.3579885 12.38020975 67.11633344 12.4375 73.875 C17.3875 74.205 22.3375 74.535 27.4375 74.875 C26.9425 76.855 26.9425 76.855 26.4375 78.875 C23.9997037 78.92897335 21.56310315 78.96865616 19.125 79 C18.43470703 79.01675781 17.74441406 79.03351563 17.03320312 79.05078125 C13.26614604 79.08717794 11.65318296 79.01878864 8.4375 76.875 C8.04550171 74.39030457 8.04550171 74.39030457 8.02099609 71.21948242 C8.00442963 70.03452682 7.98786316 68.84957123 7.97079468 67.62870789 C7.96754181 66.34228897 7.96428894 65.05587006 7.9609375 63.73046875 C7.9371341 61.71815805 7.91332659 59.70584739 7.8892765 57.69353962 C7.85924065 54.86753312 7.84285096 52.0415054 7.82623291 49.21539307 C7.79048299 43.61091788 7.72921539 38.00667067 7.66774368 32.40242958 C7.64872682 30.44770734 7.63745964 28.49291467 7.62631226 26.53813171 C7.61605011 25.34371964 7.60578796 24.14930756 7.59521484 22.91870117 C7.58871918 21.86994308 7.58222351 20.821185 7.57553101 19.74064636 C7.44431769 17.01654122 7.05026958 14.52823008 6.4375 11.875 C5.7775 11.875 5.1175 11.875 4.4375 11.875 C3.715625 10.946875 2.99375 10.01875 2.25 9.0625 C-1.0611439 4.99094805 -4.6347355 3.27424061 -9.8828125 2.55859375 C-16.36117911 2.24381418 -21.8810437 3.75801755 -27.5625 6.875 C-28.56958356 7.86786591 -29.57120778 8.86636739 -30.5625 9.875 C-31.2225 9.875 -31.8825 9.875 -32.5625 9.875 C-32.31841511 6.579854 -31.35816695 5.67553202 -28.9375 3.3125 C-20.87471965 -2.81975548 -9.23903229 -5.44505705 0 0 Z " fill="#489097" transform="translate(321.5625,227.125)"/>
<path d="M0 0 C0.33 0 0.66 0 1 0 C0.97643433 0.87567627 0.97643433 0.87567627 0.95239258 1.76904297 C0.88917972 4.47092595 0.85074077 7.17265259 0.8125 9.875 C0.78736328 10.7928125 0.76222656 11.710625 0.73632812 12.65625 C0.61022897 24.59363685 4.56062116 35.72379365 12.4375 44.8125 C13.283125 45.534375 14.12875 46.25625 15 47 C15.78503906 47.73476563 15.78503906 47.73476563 16.5859375 48.484375 C26.36395027 57.42174414 37.07610905 59.58727617 50.03125 59.2421875 C59.53002075 58.6625381 66.03987202 55.79538446 73.78515625 50.328125 C74.51605469 49.88984375 75.24695313 49.4515625 76 49 C76.66 49.33 77.32 49.66 78 50 C71.62951421 58.59050357 64.09259993 61.93890237 53.52734375 63.51953125 C39.72013573 64.64634366 28.7538315 62.41211007 17 55 C17 54.34 17 53.68 17 53 C16.34 53 15.68 53 15 53 C15 52.34 15 51.68 15 51 C14.4225 50.773125 13.845 50.54625 13.25 50.3125 C10.33604191 48.61269111 8.97099351 46.74744549 7 44 C6.59652344 43.47921875 6.19304687 42.9584375 5.77734375 42.421875 C-1.46038209 32.24036464 -3.58053743 18.40285829 -1.5390625 6.2578125 C-1.08763314 4.15768461 -0.55348466 2.07556748 0 0 Z " fill="#25545E" transform="translate(175,242)"/>
<path d="M0 0 C0.66 0 1.32 0 2 0 C2 19.8 2 39.6 2 60 C7.28 60 12.56 60 18 60 C16 64 16 64 13.765625 64.7734375 C10.68756344 65.02559509 7.82552259 64.90528162 4.75 64.625 C3.69296875 64.53476562 2.6359375 64.44453125 1.546875 64.3515625 C-1 64 -1 64 -2 63 C-2.10434366 61.14439035 -2.13854627 59.28479842 -2.14526367 57.42626953 C-2.15164352 56.23478302 -2.15802338 55.04329651 -2.16459656 53.81570435 C-2.16570938 52.51785004 -2.1668222 51.21999573 -2.16796875 49.8828125 C-2.1711801 48.54621342 -2.17454407 47.20961469 -2.17805481 45.87301636 C-2.18405278 43.0668659 -2.18589408 40.26074626 -2.18530273 37.45458984 C-2.18520119 33.85753426 -2.19884209 30.26067642 -2.21607494 26.66366768 C-2.22719165 23.90130708 -2.22922203 21.13899429 -2.22869301 18.37661362 C-2.23044888 16.4051238 -2.24129398 14.43364891 -2.25224304 12.46218872 C-2.24916641 11.26439789 -2.24608978 10.06660706 -2.24291992 8.83251953 C-2.24434494 7.77630402 -2.24576996 6.7200885 -2.24723816 5.63186646 C-2 3 -2 3 0 0 Z " fill="#57A9AA" transform="translate(376,242)"/>
<path d="M0 0 C5.70452935 3.86640323 10.24298926 7.26424521 11.625 14.3125 C11.66887277 17.24649121 11.30675202 19.39070563 10.625 22.3125 C8.5625 23.8125 8.5625 23.8125 6.625 24.3125 C7.12 22.8275 7.12 22.8275 7.625 21.3125 C8.01481277 17.1804846 7.90018905 14.85229391 6 11.125 C1.19758405 5.43792848 -4.38309076 2.68212123 -11.75 2 C-18.712323 2.60020026 -23.72359228 5.41033753 -29.375 9.3125 C-30.035 9.3125 -30.695 9.3125 -31.375 9.3125 C-31.6534375 9.89257812 -31.931875 10.47265625 -32.21875 11.0703125 C-33.67268165 13.88976103 -35.40307272 16.47673148 -37.15625 19.1171875 C-38.7542967 21.8370851 -38.7542967 21.8370851 -40.375 27.3125 C-26.845 27.3125 -13.315 27.3125 0.625 27.3125 C0.625 27.6425 0.625 27.9725 0.625 28.3125 C-13.235 28.3125 -27.095 28.3125 -41.375 28.3125 C-40.26354676 18.30942087 -38.00250772 11.36343024 -30.625 4.375 C-21.62522624 -2.72918574 -10.38650511 -5.9637648 0 0 Z " fill="#358187" transform="translate(231.375,224.6875)"/>
<path d="M0 0 C0.66 0.33 1.32 0.66 2 1 C1.67 1.33 1.34 1.66 1 2 C0.87485589 4.70753726 0.81392872 7.39082104 0.79467773 10.09985352 C0.78477814 10.94856018 0.77487854 11.79726685 0.76467896 12.67169189 C0.73296753 15.49073449 0.70826861 18.30979398 0.68359375 21.12890625 C0.66303254 23.07804311 0.6420363 25.02717544 0.62062073 26.9763031 C0.56531402 32.11701793 0.5159428 37.25777357 0.46777344 42.39855957 C0.41762103 47.64009247 0.36190237 52.8815658 0.30664062 58.12304688 C0.19895392 68.41531568 0.09804655 78.70763484 0 89 C5.61 89 11.22 89 17 89 C16.34 90.32 15.68 91.64 15 93 C12.54159395 93.02691685 10.08348118 93.04679802 7.625 93.0625 C6.92632812 93.07087891 6.22765625 93.07925781 5.5078125 93.08789062 C0.2265625 93.11328125 0.2265625 93.11328125 -2 92 C-2.96525414 86.5076634 -3.1276787 81.15876773 -3.0534668 75.59619141 C-3.04707184 74.79844299 -3.04067688 74.00069458 -3.03408813 73.17877197 C-3.01149766 70.56961143 -2.98083346 67.96062823 -2.94921875 65.3515625 C-2.92996812 63.52932942 -2.91091293 61.70709426 -2.89204407 59.88485718 C-2.85121172 56.08057268 -2.80599982 52.27636918 -2.75805664 48.47216797 C-2.69716727 43.58957589 -2.65039829 38.70695918 -2.60722637 33.82418251 C-2.57195247 30.06842078 -2.52771046 26.31280461 -2.48087502 22.55717087 C-2.45979874 20.75581633 -2.44190566 18.95442168 -2.4272213 17.15300369 C-2.40574204 14.64426385 -2.37184604 12.13599158 -2.3347168 9.62744141 C-2.33098557 8.88043976 -2.32725433 8.13343811 -2.32341003 7.36380005 C-2.22834845 2.22834845 -2.22834845 2.22834845 0 0 Z " fill="#458387" transform="translate(268,213)"/>
<path d="M0 0 C3.35136441 1.2910994 6.67927199 2.63208647 10 4 C10.78375 4.31195313 11.5675 4.62390625 12.375 4.9453125 C16.02741567 6.54324436 17.64667904 7.36130442 19.625 10.9375 C20.0459337 14.37512525 19.5990881 15.97014886 18 19 C17.67 19.66 17.34 20.32 17 21 C13.96279179 19.74152715 10.98223354 18.38313143 8 17 C7.21496094 16.68417969 6.42992187 16.36835938 5.62109375 16.04296875 C3.21847024 14.89538292 1.70495108 14.05958091 0 12 C-0.67741223 7.91952478 -0.47038934 4.09630718 0 0 Z " fill="#D4E3E4" transform="translate(141,249)"/>
<path d="M0 0 C1.6415049 3.2830098 0.51888624 6.42545033 0 10 C3.26613695 11.91302307 5.99445248 12.35674661 9.75 12.625 C10.73484375 12.69976562 11.7196875 12.77453125 12.734375 12.8515625 C13.48203125 12.90054688 14.2296875 12.94953125 15 13 C15.07347656 14.22976562 15.07347656 14.22976562 15.1484375 15.484375 C15.22320312 16.56203125 15.29796875 17.6396875 15.375 18.75 C15.44460938 19.81734375 15.51421875 20.8846875 15.5859375 21.984375 C15.87451003 25.28466713 15.87451003 25.28466713 18 29 C21.3 29 24.6 29 28 29 C27.34 29.33 26.68 29.66 26 30 C25.855625 30.66 25.71125 31.32 25.5625 32 C25.376875 32.66 25.19125 33.32 25 34 C21.15699154 35.28100282 19.51105683 34.49719987 15.875 33 C12.96249691 31.44666502 12.08299835 30.11362026 11 27 C10.78180672 23.98081387 10.82234188 21.02018799 11 18 C9.205625 18.12375 9.205625 18.12375 7.375 18.25 C4.19062534 18.21600312 2.57699324 17.83381877 -0.5 16.625 C-3.77783158 13.18327684 -3.60909127 11.03759141 -3.50390625 6.4375 C-2.92287834 3.62694637 -1.86418588 2.14754214 0 0 Z " fill="#146A73" transform="translate(361,203)"/>
<path d="M0 0 C0.598125 0.20625 1.19625 0.4125 1.8125 0.625 C0.5889437 1.59048612 -0.64164811 2.54705898 -1.875 3.5 C-2.90173828 4.30050781 -2.90173828 4.30050781 -3.94921875 5.1171875 C-9.64258739 8.95251088 -14.78118581 8.93179725 -21.44921875 8.96875 C-22.43622269 8.9833728 -23.42322662 8.99799561 -24.44013977 9.01306152 C-28.65503228 9.07526504 -32.87006751 9.11506455 -37.08520508 9.15673828 C-40.16503544 9.19037174 -43.24454864 9.23549056 -46.32421875 9.28125 C-47.28253098 9.2865271 -48.2408432 9.2918042 -49.22819519 9.29724121 C-50.55516167 9.31736267 -50.55516167 9.31736267 -51.90893555 9.33789062 C-52.68883347 9.34518188 -53.46873138 9.35247314 -54.27226257 9.35998535 C-56.4265919 9.46174993 -56.4265919 9.46174993 -58.1875 11.625 C-58.5175 9.645 -58.8475 7.665 -59.1875 5.625 C-57.90697754 5.61041748 -56.62645508 5.59583496 -55.30712891 5.58081055 C-50.51714349 5.52246125 -45.7276103 5.44523267 -40.93798828 5.36254883 C-38.87230822 5.32947084 -36.80654149 5.30138664 -34.74072266 5.27856445 C-31.75646323 5.24470154 -28.7729859 5.19237207 -25.7890625 5.13671875 C-24.87822906 5.13032883 -23.96739563 5.1239389 -23.02896118 5.11735535 C-16.03137429 4.9599843 -5.61230251 -0.962109 0 0 Z " fill="#397981" transform="translate(250.1875,258.375)"/>
<path d="M0 0 C0.66 0 1.32 0 2 0 C1.67 1.32 1.34 2.64 1 4 C0.34 4 -0.32 4 -1 4 C-1 4.66 -1 5.32 -1 6 C-6.18082051 9.34594658 -9.84777564 10.56826496 -16 11 C-16.66 12.65 -17.32 14.3 -18 16 C-25.29113924 17.33670886 -25.29113924 17.33670886 -28.5 15.8125 C-30 14 -30 14 -30 10 C-30.7425 10.04125 -31.485 10.0825 -32.25 10.125 C-35.08758952 9.99601866 -36.58773938 9.42948778 -39 8 C-39 7.34 -39 6.68 -39 6 C-39.66 6 -40.32 6 -41 6 C-40.67 5.34 -40.34 4.68 -40 4 C-39.47277344 4.31839844 -38.94554688 4.63679688 -38.40234375 4.96484375 C-35.39445599 6.26092547 -32.82782683 6.38507762 -29.5625 6.5625 C-25.59837678 6.78757768 -21.8858636 7.21089118 -18 8 C-11.64758666 7.75088575 -6.35308034 5.29183676 -1 2 C-0.67 1.34 -0.34 0.68 0 0 Z " fill="#41636F" transform="translate(164,287)"/>
<path d="M0 0 C0.61875 0.185625 1.2375 0.37125 1.875 0.5625 C4.04160178 1.23686176 4.04160178 1.23686176 6 0 C11.72727273 2.45454545 11.72727273 2.45454545 13 5 C13.07033769 6.87379605 13.0843022 8.75001102 13.0625 10.625 C13.05347656 11.62789062 13.04445312 12.63078125 13.03515625 13.6640625 C13.02355469 14.43492187 13.01195312 15.20578125 13 16 C-2.67741935 11.20967742 -2.67741935 11.20967742 -8 5 C-6.576875 4.87625 -6.576875 4.87625 -5.125 4.75 C-1.89538209 4.34925077 -1.89538209 4.34925077 -0.625 1.9375 C-0.41875 1.298125 -0.2125 0.65875 0 0 Z " fill="#B6CBCF" transform="translate(122,241)"/>
<path d="M0 0 C1.97993022 0.70420198 3.9519457 1.43118311 5.9140625 2.18359375 C9.83637839 3.55249317 13.52469108 3.86518774 17.65625 4.140625 C17.32625 5.130625 16.99625 6.120625 16.65625 7.140625 C11.39976332 8.19857612 8.07369034 7.95676057 3.03125 6.203125 C-5.05836872 3.71931883 -12.94540409 2.50056382 -21.03125 5.515625 C-23.39636016 7.07856781 -23.39636016 7.07856781 -25.34375 9.140625 C-25.01375 7.490625 -24.68375 5.840625 -24.34375 4.140625 C-23.68375 4.140625 -23.02375 4.140625 -22.34375 4.140625 C-22.055 3.50125 -21.76625 2.861875 -21.46875 2.203125 C-18.2426042 -3.71147564 -5.73347551 -1.47355679 0 0 Z " fill="#418487" transform="translate(147.34375,222.859375)"/>
<path d="M0 0 C0.33 0 0.66 0 1 0 C1.28536687 7.3689572 1.57013926 14.7379372 1.85449219 22.10693359 C1.95135933 24.61540247 2.04836414 27.12386604 2.14550781 29.63232422 C2.28486479 33.23143153 2.42373168 36.83055745 2.5625 40.4296875 C2.60624756 41.55680145 2.64999512 42.68391541 2.69506836 43.84518433 C2.73510986 44.88611237 2.77515137 45.92704041 2.81640625 46.99951172 C2.85193604 47.91884491 2.88746582 48.8381781 2.92407227 49.78536987 C2.97221745 51.18964946 3 52.59489533 3 54 C9.93 54.495 9.93 54.495 17 55 C17 38.83 17 22.66 17 6 C17.33 6 17.66 6 18 6 C18 22.83 18 39.66 18 57 C17.01 57.495 17.01 57.495 16 58 C16 57.34 16 56.68 16 56 C14.39318359 56.01740234 14.39318359 56.01740234 12.75390625 56.03515625 C11.35677257 56.04453299 9.95963701 56.05363331 8.5625 56.0625 C7.85544922 56.07087891 7.14839844 56.07925781 6.41992188 56.08789062 C4.61306441 56.09653588 2.80612397 56.05220011 1 56 C0 55 0 55 -0.12025452 52.79173279 C-0.11803391 51.81688431 -0.11581329 50.84203583 -0.11352539 49.83764648 C-0.11344986 48.73658066 -0.11337433 47.63551483 -0.11329651 46.50108337 C-0.10813522 45.3031868 -0.10297394 44.10529022 -0.09765625 42.87109375 C-0.0962413 41.65172623 -0.09482635 40.4323587 -0.09336853 39.17604065 C-0.08774967 35.2631693 -0.07519396 31.35035419 -0.0625 27.4375 C-0.05748743 24.79231853 -0.0529241 22.14713617 -0.04882812 19.50195312 C-0.03777411 13.00128274 -0.02101764 6.50064539 0 0 Z " fill="#A0C7C9" transform="translate(333,246)"/>
<path d="M0 0 C0.33 0 0.66 0 1 0 C1.14695313 0.99580078 1.14695313 0.99580078 1.296875 2.01171875 C1.44640625 2.89472656 1.5959375 3.77773438 1.75 4.6875 C1.88921875 5.55761719 2.0284375 6.42773438 2.171875 7.32421875 C3.23816974 10.7695579 4.33670892 12.54157747 7 15 C9.89780617 15.68953821 12.32443858 16.09799329 15.25 16.3125 C15.99507812 16.38533203 16.74015625 16.45816406 17.5078125 16.53320312 C19.33670704 16.70905837 21.16822091 16.85729163 23 17 C23 17.33 23 17.66 23 18 C21.25181409 18.22304441 19.50129677 18.4278645 17.75 18.625 C16.77546875 18.74101562 15.8009375 18.85703125 14.796875 18.9765625 C11.86570607 19.00112537 10.45471036 18.5312717 8 17 C7.67 17.66 7.34 18.32 7 19 C7 18.34 7 17.68 7 17 C6.11248047 17.05220703 6.11248047 17.05220703 5.20703125 17.10546875 C-3.25345547 17.39530598 -3.25345547 17.39530598 -7 14 C-8 11.625 -8 11.625 -8 9 C-6.31303909 5.1821411 -4.77670393 3.6365717 -1 2 C-0.67 1.34 -0.34 0.68 0 0 Z " fill="#829EA7" transform="translate(130,277)"/>
<path d="M0 0 C0.33 0 0.66 0 1 0 C1.33 18.81 1.66 37.62 2 57 C7.94 57 13.88 57 20 57 C18 61 18 61 15.765625 61.7734375 C12.68756344 62.02559509 9.82552259 61.90528162 6.75 61.625 C5.16445313 61.48964844 5.16445313 61.48964844 3.546875 61.3515625 C1 61 1 61 0 60 C-0.09386381 58.1281906 -0.11743804 56.2528194 -0.11352539 54.37866211 C-0.11344986 53.17749252 -0.11337433 51.97632294 -0.11329651 50.73875427 C-0.10813522 49.4314888 -0.10297394 48.12422333 -0.09765625 46.77734375 C-0.09579198 45.43355868 -0.09436812 44.08977293 -0.09336853 42.74598694 C-0.08954402 39.20317723 -0.07971432 35.6604083 -0.06866455 32.11761475 C-0.05844899 28.50484773 -0.0538706 24.89207416 -0.04882812 21.27929688 C-0.03809198 14.1861812 -0.02101636 7.09309326 0 0 Z " fill="#1B6067" transform="translate(374,245)"/>
<path d="M0 0 C0.99 1.32 1.98 2.64 3 4 C2.67 4.66 2.34 5.32 2 6 C2.52673096 11.83535275 3.51781269 16.97752421 8 21 C10.90401803 22.87068646 13.91484028 24.45026753 17 26 C17.92683594 26.47050781 18.85367188 26.94101563 19.80859375 27.42578125 C22.19974493 28.6298361 24.5965019 29.82083078 27 31 C26.67 32.32 26.34 33.64 26 35 C20 32 14 29 8 26 C8 25.34 8 24.68 8 24 C7.01 23.67 6.02 23.34 5 23 C3.6484375 21.0390625 3.6484375 21.0390625 2.375 18.625 C1.94960937 17.83351562 1.52421875 17.04203125 1.0859375 16.2265625 C-0.57004732 12.83119794 -1.13730559 10.17224506 -1.125 6.4375 C-1.12757812 5.65246094 -1.13015625 4.86742187 -1.1328125 4.05859375 C-1 2 -1 2 0 0 Z " fill="#34686E" transform="translate(107,226)"/>
<path d="M0 0 C7.55661861 1.47846886 15.06977057 6.00763111 20 12 C20.1875 15.1875 20.1875 15.1875 20 18 C19.34 18 18.68 18 18 18 C17.6596875 16.329375 17.6596875 16.329375 17.3125 14.625 C16.42390529 10.90122027 16.42390529 10.90122027 13.75 9.8125 C12.8425 9.544375 11.935 9.27625 11 9 C8.97681922 7.70211044 6.97133986 6.37535339 5 5 C5 7.31 5 9.62 5 12 C4.67 11.34 4.34 10.68 4 10 C0.97065509 9.34227572 0.97065509 9.34227572 -2 9 C-2 10.65 -2 12.3 -2 14 C-2.33 14 -2.66 14 -3 14 C-3.08153933 12.41753293 -3.13943557 10.83383727 -3.1875 9.25 C-3.22230469 8.36828125 -3.25710937 7.4865625 -3.29296875 6.578125 C-2.94923684 3.55328417 -1.99772541 2.24416398 0 0 Z " fill="#9EADB9" transform="translate(137,260)"/>
<path d="M0 0 C0.33 0 0.66 0 1 0 C1.1537664 9.85727146 1.30194789 19.71460943 1.4429636 29.57207203 C1.50861629 34.14908768 1.57620579 38.72605777 1.64819336 43.30297852 C1.71757064 47.71843983 1.7818972 52.13394827 1.84269524 56.54953575 C1.86680481 58.23569099 1.8927464 59.92182105 1.92053413 61.60791969 C1.95908929 63.96619351 1.99117972 66.32447213 2.02172852 68.68286133 C2.04114754 69.73266678 2.04114754 69.73266678 2.06095886 70.80368042 C2.09415687 73.83887582 1.96930541 76.09208377 1 79 C5.29 79.33 9.58 79.66 14 80 C14 76.37 14 72.74 14 69 C14.66 69 15.32 69 16 69 C16.19401633 70.81181405 16.38004375 72.62448532 16.5625 74.4375 C16.66691406 75.44683594 16.77132813 76.45617187 16.87890625 77.49609375 C16.91886719 78.32238281 16.95882813 79.14867187 17 80 C16.67 80.33 16.34 80.66 16 81 C10.72 81 5.44 81 0 81 C0 54.27 0 27.54 0 0 Z " fill="#DFFAF7" transform="translate(269,220)"/>
<path d="M0 0 C0.33 0 0.66 0 1 0 C1 17.82 1 35.64 1 54 C6.94 54 12.88 54 19 54 C18.67 55.32 18.34 56.64 18 58 C15.5622037 58.05397335 13.12560315 58.09365616 10.6875 58.125 C9.99720703 58.14175781 9.30691406 58.15851563 8.59570312 58.17578125 C4.82864604 58.21217794 3.21568296 58.14378864 0 56 C-0.36076355 53.6335144 -0.36076355 53.6335144 -0.34057617 50.63232422 C-0.34034958 49.51131317 -0.34012299 48.39030212 -0.33988953 47.23532104 C-0.32440567 46.02071198 -0.30892181 44.80610291 -0.29296875 43.5546875 C-0.28872391 42.31453888 -0.28447906 41.07439026 -0.28010559 39.79666138 C-0.26613216 36.49864537 -0.23917361 33.2010665 -0.20599365 29.90319824 C-0.17531238 26.53838458 -0.16160446 23.17350696 -0.14648438 19.80859375 C-0.1133473 13.20555729 -0.06309697 6.60281442 0 0 Z " fill="#0D545D" transform="translate(330,248)"/>
<path d="M0 0 C7.15447154 -0.47696477 7.15447154 -0.47696477 10.4375 1.375 C12.80742352 5.35647151 12.82586124 9.43756454 13 14 C14.03060547 14.16435547 14.03060547 14.16435547 15.08203125 14.33203125 C15.98308594 14.49058594 16.88414062 14.64914063 17.8125 14.8125 C18.70582031 14.96332031 19.59914063 15.11414063 20.51953125 15.26953125 C23.24277192 16.07149346 24.31383549 16.74462072 26 19 C26.8437179 22.56957573 27.39525147 24.97234618 26.0625 28.4375 C25.5365625 29.2109375 25.5365625 29.2109375 25 30 C24.67 30 24.34 30 24 30 C24 27.69 24 25.38 24 23 C23.34 23 22.68 23 22 23 C21.67 21.02 21.34 19.04 21 17 C20.37351562 17.01160156 19.74703125 17.02320313 19.1015625 17.03515625 C18.28429687 17.04417969 17.46703125 17.05320313 16.625 17.0625 C15.81289063 17.07410156 15.00078125 17.08570313 14.1640625 17.09765625 C12 17 12 17 10 16 C9.65625 13.56640625 9.65625 13.56640625 9.5 10.5625 C9.45324169 6.27670771 9.45324169 6.27670771 7 3 C4.34462628 2.43479997 1.70855287 2.26211802 -1 2 C-0.67 1.34 -0.34 0.68 0 0 Z " fill="#8FDEDF" transform="translate(380,186)"/>
<path d="M0 0 C1.375 2.3125 1.375 2.3125 2 5 C1.05133914 7.68787244 -0.40586698 9.60880046 -2 12 C-3.9375 11.1875 -3.9375 11.1875 -6 10 C-6.33 9.01 -6.66 8.02 -7 7 C-8.62948064 5.77554716 -8.62948064 5.77554716 -10.5625 4.8125 C-11.696875 4.214375 -12.83125 3.61625 -14 3 C-13.34 2.01 -12.68 1.02 -12 0 C-3.17288136 -1.70847458 -3.17288136 -1.70847458 0 0 Z " fill="#45A0A1" transform="translate(148,276)"/>
<path d="M0 0 C0.99 0.33 1.98 0.66 3 1 C2.01 1.33 1.02 1.66 0 2 C0 3.32 0 4.64 0 6 C-0.66 6 -1.32 6 -2 6 C-2.2784375 6.58007812 -2.556875 7.16015625 -2.84375 7.7578125 C-4.29768165 10.57726103 -6.02807272 13.16423148 -7.78125 15.8046875 C-9.3792967 18.5245851 -9.3792967 18.5245851 -11 24 C2.53 24 16.06 24 30 24 C30 24.33 30 24.66 30 25 C16.14 25 2.28 25 -12 25 C-10.84962497 14.64662476 -8.0261275 6.84581463 0 0 Z " fill="#A2B8BC" transform="translate(202,228)"/>
<path d="M0 0 C2.97 0.495 2.97 0.495 6 1 C6.33 2.32 6.66 3.64 7 5 C7.66 5 8.32 5 9 5 C9 5.66 9 6.32 9 7 C6.94921875 7.22786458 4.8984375 7.45572917 2.84765625 7.68359375 C0.98859771 7.81886614 0.98859771 7.81886614 0 9 C0.5053125 9.32613281 1.010625 9.65226562 1.53125 9.98828125 C2.50578125 10.64376953 2.50578125 10.64376953 3.5 11.3125 C4.1496875 11.74175781 4.799375 12.17101562 5.46875 12.61328125 C5.9740625 13.07089844 6.479375 13.52851563 7 14 C7 14.99 7 15.98 7 17 C6.34 17 5.68 17 5 17 C5 16.34 5 15.68 5 15 C4.195625 14.87625 3.39125 14.7525 2.5625 14.625 C1.716875 14.41875 0.87125 14.2125 0 14 C-0.33 13.34 -0.66 12.68 -1 12 C-1.99 13.32 -2.98 14.64 -4 16 C-4 13.03 -4 10.06 -4 7 C-2.68 6.34 -1.36 5.68 0 5 C0 3.35 0 1.7 0 0 Z " fill="#BAC5CE" transform="translate(135,269)"/>
<path d="M0 0 C0.33 0 0.66 0 1 0 C0.97643433 0.87567627 0.97643433 0.87567627 0.95239258 1.76904297 C0.88917972 4.47092595 0.85074077 7.17265259 0.8125 9.875 C0.78736328 10.7928125 0.76222656 11.710625 0.73632812 12.65625 C0.64182326 21.60271011 2.59197807 29.15124569 7.0625 36.9375 C7.82240234 38.28134766 7.82240234 38.28134766 8.59765625 39.65234375 C9.68110395 41.46613781 10.82805778 43.24208667 12 45 C9.8125 45 9.8125 45 7 44 C-0.00566316 36.91043668 -2.19114694 24.20987311 -2.375 14.625 C-2.19626581 9.55169878 -1.30619354 4.89822579 0 0 Z " fill="#4A7B7F" transform="translate(175,242)"/>
<path d="M0 0 C3.42353094 -0.3734761 5.91060954 -0.57873868 9 1.0625 C10.58495594 4.13335213 9.68036707 6.72186775 9 10 C7.54119891 9.85892253 6.08296449 9.71197585 4.625 9.5625 C3.40683594 9.44068359 3.40683594 9.44068359 2.1640625 9.31640625 C0 9 0 9 -2 8 C-2.20086443 4.28400809 -2.1519437 3.22791555 0 0 Z " fill="#DDE9EA" transform="translate(136,233)"/>
<path d="M0 0 C3.48677555 2.69432656 4.11783965 5.7927737 5 10 C5.42658615 15.08421047 5.39049923 19.36840775 3 24 C2.01 24 1.02 24 0 24 C0.01160156 22.81921875 0.02320313 21.6384375 0.03515625 20.421875 C0.04453752 18.86458492 0.05363736 17.30729312 0.0625 15.75 C0.07087891 14.97269531 0.07925781 14.19539063 0.08789062 13.39453125 C0.09111328 12.64042969 0.09433594 11.88632812 0.09765625 11.109375 C0.10289307 10.41811523 0.10812988 9.72685547 0.11352539 9.01464844 C0.0689836 6.96718221 0.0689836 6.96718221 -0.56860352 4.93066406 C-1 3 -1 3 0 0 Z " fill="#85999A" transform="translate(164,263)"/>
<path d="M0 0 C0.61875 0.185625 1.2375 0.37125 1.875 0.5625 C4.04160178 1.23686176 4.04160178 1.23686176 6 0 C9.0625 1.25 9.0625 1.25 12 3 C12.33 3.99 12.66 4.98 13 6 C11.68 6 10.36 6 9 6 C9 7.98 9 9.96 9 12 C8.67 11.34 8.34 10.68 8 10 C7.01 9.67 6.02 9.34 5 9 C5.66 9 6.32 9 7 9 C6.34 8.01 5.68 7.02 5 6 C4.443125 6.350625 3.88625 6.70125 3.3125 7.0625 C0.46113217 8.21845993 -1.08517222 7.80967438 -4 7 C-4 6.34 -4 5.68 -4 5 C-3.34 4.67 -2.68 4.34 -2 4 C-0.86649466 1.98330173 -0.86649466 1.98330173 0 0 Z " fill="#C2D0D4" transform="translate(122,241)"/>
<path d="M0 0 C4.69550496 0.49787804 7.18926764 2.44032425 10.8125 5.375 C15.35131051 8.95475844 19.42736618 11.39250948 25 13 C24.34 13.66 23.68 14.32 23 15 C17.27551379 14.77551034 13.71519547 12.98308285 9 10 C9 9.34 9 8.68 9 8 C8.34 8 7.68 8 7 8 C7 7.34 7 6.68 7 6 C6.401875 5.7525 5.80375 5.505 5.1875 5.25 C2.71352479 3.83629988 1.56629745 2.34944617 0 0 Z " fill="#347177" transform="translate(183,287)"/>
<path d="M0 0 C1.95971838 1.84203294 2.92171678 3.36030551 3.25048828 6.046875 C3.28717454 8.54360777 3.19600282 11.00669376 3.0625 13.5 C3.05154297 14.35464844 3.04058594 15.20929688 3.02929688 16.08984375 C2.91250404 18.544408 2.72261593 20.64995659 2 23 C-2.53614458 27 -2.53614458 27 -6 27 C-6 26.34 -6 25.68 -6 25 C-5.01 25 -4.02 25 -3 25 C-2.67 23.35 -2.34 21.7 -2 20 C-2.66 19.67 -3.32 19.34 -4 19 C-4.33 18.01 -4.66 17.02 -5 16 C-4.01 15.67 -3.02 15.34 -2 15 C-0.45577272 11.91154544 -0.98232535 8.81256796 -1.0625 5.41015625 C-1 3 -1 3 0 0 Z " fill="#BBCBC9" transform="translate(162,266)"/>
<path d="M0 0 C0.33 0.66 0.66 1.32 1 2 C-0.07378906 2.24234375 -1.14757812 2.4846875 -2.25390625 2.734375 C-3.6902409 3.07233609 -5.12643129 3.41091065 -6.5625 3.75 C-7.26697266 3.90726563 -7.97144531 4.06453125 -8.69726562 4.2265625 C-13.72456335 5.43126057 -17.61484518 7.25711736 -22 10 C-22 9.01 -22 8.02 -22 7 C-21.34 6.67 -20.68 6.34 -20 6 C-19.67 5.01 -19.34 4.02 -19 3 C-13.35593187 -1.2330511 -6.70181924 -0.2684705 0 0 Z " fill="#3D7C7F" transform="translate(224,223)"/>
<path d="M0 0 C1.45880109 0.14107747 2.91703551 0.28802415 4.375 0.4375 C5.59316406 0.55931641 5.59316406 0.55931641 6.8359375 0.68359375 C9 1 9 1 11 2 C12.53668865 2.22467831 14.07968054 2.40796805 15.625 2.5625 C16.44226563 2.64628906 17.25953125 2.73007813 18.1015625 2.81640625 C18.72804687 2.87699219 19.35453125 2.93757812 20 3 C19.67 3.99 19.34 4.98 19 6 C13.54145679 7.11699919 9.85883635 6.72706285 4.5625 5.0625 C3.32628906 4.68222656 2.09007812 4.30195313 0.81640625 3.91015625 C-0.11300781 3.60980469 -1.04242188 3.30945313 -2 3 C-1.34 2.67 -0.68 2.34 0 2 C0 1.34 0 0.68 0 0 Z " fill="#3A7A84" transform="translate(145,224)"/>
<path d="M0 0 C12.54 0 25.08 0 38 0 C37.67 0.66 37.34 1.32 37 2 C25.78 2 14.56 2 3 2 C2.34 3.32 1.68 4.64 1 6 C0.67 4.02 0.34 2.04 0 0 Z " fill="#3C8F92" transform="translate(191,264)"/>
<path d="M0 0 C0.89203125 0.01804688 1.7840625 0.03609375 2.703125 0.0546875 C3.71632813 0.08949219 3.71632813 0.08949219 4.75 0.125 C4.75 0.785 4.75 1.445 4.75 2.125 C5.74 2.455 6.73 2.785 7.75 3.125 C6.44675781 3.28935547 6.44675781 3.28935547 5.1171875 3.45703125 C-5.64113095 4.92108516 -5.64113095 4.92108516 -14.25 11.125 C-14.91 11.125 -15.57 11.125 -16.25 11.125 C-15.9973068 7.71364174 -15.01495524 6.90562489 -12.4375 4.5 C-8.04120679 1.22433055 -5.52137831 -0.14529943 0 0 Z " fill="#2A6A71" transform="translate(305.25,225.875)"/>
<path d="M0 0 C0.66 0.33 1.32 0.66 2 1 C2 1.66 2 2.32 2 3 C3.65 3.33 5.3 3.66 7 4 C7 4.66 7 5.32 7 6 C7.66 6 8.32 6 9 6 C9 7.32 9 8.64 9 10 C9.66 10.33 10.32 10.66 11 11 C8.12529507 12.43735246 6.18105412 12.38172649 3 12 C0.5625 9.9375 0.5625 9.9375 -1 7 C-0.75 3.1875 -0.75 3.1875 0 0 Z " fill="#D7EAE9" transform="translate(133,280)"/>
<path d="M0 0 C2 2 2 2 2 4 C0.68 4.33 -0.64 4.66 -2 5 C-2.66 7.64 -3.32 10.28 -4 13 C-5.32 13 -6.64 13 -8 13 C-8.2475 13.804375 -8.495 14.60875 -8.75 15.4375 C-10 18 -10 18 -12.125 18.8125 C-12.74375 18.874375 -13.3625 18.93625 -14 19 C-11.69381998 12.46582328 -7.99071966 7.73478531 -3 3 C-2.401875 2.401875 -1.80375 1.80375 -1.1875 1.1875 C-0.795625 0.795625 -0.40375 0.40375 0 0 Z " fill="#D9EBEA" transform="translate(192,218)"/>
<path d="M0 0 C2.97 0 5.94 0 9 0 C9.04898437 0.81984375 9.09796875 1.6396875 9.1484375 2.484375 C9.22320312 3.56203125 9.29796875 4.6396875 9.375 5.75 C9.44460938 6.81734375 9.51421875 7.8846875 9.5859375 8.984375 C9.87451003 12.28466713 9.87451003 12.28466713 12 16 C15.3 16 18.6 16 22 16 C21.34 16.33 20.68 16.66 20 17 C19.855625 17.66 19.71125 18.32 19.5625 19 C19.376875 19.66 19.19125 20.32 19 21 C18.01 21.33 17.02 21.66 16 22 C16 21.34 16 20.68 16 20 C15.236875 19.896875 14.47375 19.79375 13.6875 19.6875 C10.63130914 18.90568373 9.78218863 18.56966733 8 16 C7.7827899 13.35003674 7.71648446 10.94923442 7.8125 8.3125 C7.82603516 7.61060547 7.83957031 6.90871094 7.85351562 6.18554688 C7.88879818 4.45670171 7.94260417 2.72825235 8 1 C5.36 1 2.72 1 0 1 C0 0.67 0 0.34 0 0 Z " fill="#249397" transform="translate(367,216)"/>
<path d="M0 0 C1.6415049 3.2830098 0.51888624 6.42545033 0 10 C1.32 10.66 2.64 11.32 4 12 C4 12.66 4 13.32 4 14 C6.31 14.33 8.62 14.66 11 15 C11 15.33 11 15.66 11 16 C9.41986783 16.25028811 7.83557694 16.47440946 6.25 16.6875 C4.92742187 16.87892578 4.92742187 16.87892578 3.578125 17.07421875 C1 17 1 17 -1.30078125 15.828125 C-3.49381358 13.4687247 -3.50930626 12.24591106 -3.4375 9.0625 C-3.43621094 8.20785156 -3.43492187 7.35320312 -3.43359375 6.47265625 C-2.92940214 3.59740138 -1.90193919 2.17436549 0 0 Z " fill="#1D6C77" transform="translate(361,203)"/>
<path d="M0 0 C2 3 2 3 1.625 5.6875 C1.41875 6.450625 1.2125 7.21375 1 8 C1.9590625 8.1546875 1.9590625 8.1546875 2.9375 8.3125 C3.9584375 8.6528125 3.9584375 8.6528125 5 9 C5.33 9.99 5.66 10.98 6 12 C0.22240116 12.12036664 -5.27959989 11.8320582 -11 11 C-11 10.67 -11 10.34 -11 10 C-9.35 9.67 -7.7 9.34 -6 9 C-6 7.35 -6 5.7 -6 4 C-4.68 4.33 -3.36 4.66 -2 5 C-1.34 3.35 -0.68 1.7 0 0 Z " fill="#B6D1D0" transform="translate(148,282)"/>
<path d="M0 0 C0.66 0 1.32 0 2 0 C1.67 1.32 1.34 2.64 1 4 C0.34 4 -0.32 4 -1 4 C-1 4.66 -1 5.32 -1 6 C-4.86857033 8.49845167 -7.75738615 10.18324272 -12.375 10.625 C-13.57125 10.74875 -14.7675 10.8725 -16 11 C-16.33 11.66 -16.66 12.32 -17 13 C-17 12.34 -17 11.68 -17 11 C-17.99 11 -18.98 11 -20 11 C-20 10.34 -20 9.68 -20 9 C-18.081875 8.6596875 -18.081875 8.6596875 -16.125 8.3125 C-10.67522122 7.11008849 -5.7440904 4.93681787 -1 2 C-0.67 1.34 -0.34 0.68 0 0 Z " fill="#336166" transform="translate(164,287)"/>
<path d="M0 0 C4.15448646 0.53677436 6.45962335 1.80149207 9.6875 4.4375 C10.45449219 5.05496094 11.22148437 5.67242187 12.01171875 6.30859375 C14 8 14 8 16 10 C16.125 13.125 16.125 13.125 16 16 C15.34 16 14.68 16 14 16 C13.6596875 14.329375 13.6596875 14.329375 13.3125 12.625 C12.43183938 8.90838548 12.43183938 8.90838548 9.8125 7.875 C8.4203125 7.441875 8.4203125 7.441875 7 7 C5.70261007 6.20864598 4.43224287 5.37182395 3.1875 4.5 C2.58292969 4.0771875 1.97835937 3.654375 1.35546875 3.21875 C0.90816406 2.8165625 0.46085938 2.414375 0 2 C0 1.34 0 0.68 0 0 Z " fill="#53888F" transform="translate(141,262)"/>
<path d="M0 0 C0 4.29 0 8.58 0 13 C-3.96 13 -7.92 13 -12 13 C-12 12.67 -12 12.34 -12 12 C-9.36 12 -6.72 12 -4 12 C-4.20625 11.29875 -4.4125 10.5975 -4.625 9.875 C-5.08389078 6.35683738 -4.39601248 4.23287101 -3 1 C-1 0 -1 0 0 0 Z " fill="#1B6B70" transform="translate(376,189)"/>
<path d="M0 0 C0.66 0.66 1.32 1.32 2 2 C0.21825212 4.30142435 -1.16304165 5.80034391 -4.046875 6.48828125 C-6.0246611 6.72323102 -8.01271872 6.86751458 -10 7 C-10.33 5.02 -10.66 3.04 -11 1 C-9.20991533 0.77848451 -7.41781838 0.57317787 -5.625 0.375 C-4.62726563 0.25898438 -3.62953125 0.14296875 -2.6015625 0.0234375 C-1.74304688 0.01570312 -0.88453125 0.00796875 0 0 Z " fill="#28687A" transform="translate(403,215)"/>
<path d="M0 0 C2.71621025 1.62972615 3.90811341 2.81185128 5.3125 5.6875 C6.20326885 9.97938626 5.9992549 12.71747901 5 17 C2.9375 18.5 2.9375 18.5 1 19 C1.33 18.01 1.66 17.02 2 16 C2.343491 10.66704568 2.343491 10.66704568 0 6 C-0.125 2.8125 -0.125 2.8125 0 0 Z " fill="#559698" transform="translate(237,230)"/>
<path d="M0 0 C4.62 0 9.24 0 14 0 C13.01 1.485 13.01 1.485 12 3 C9.8359375 3.29296875 9.8359375 3.29296875 7.375 3.1875 C6.55773437 3.16042969 5.74046875 3.13335937 4.8984375 3.10546875 C4.27195312 3.07066406 3.64546875 3.03585938 3 3 C2.67 4.32 2.34 5.64 2 7 C1.34 7 0.68 7 0 7 C-0.33 8.32 -0.66 9.64 -1 11 C-1.125 3.375 -1.125 3.375 0 0 Z " fill="#6AD2D0" transform="translate(362,202)"/>
<path d="M0 0 C0.66 0.33 1.32 0.66 2 1 C1.67 1.66 1.34 2.32 1 3 C0.01 2.67 -0.98 2.34 -2 2 C-5.11785113 2.64644661 -5.11785113 2.64644661 -6 5 C-6 4.34 -6 3.68 -6 3 C-6.66 3 -7.32 3 -8 3 C-8.66 4.32 -9.32 5.64 -10 7 C-10.66 6.34 -11.32 5.68 -12 5 C-12.66 5.66 -13.32 6.32 -14 7 C-14.99 6.34 -15.98 5.68 -17 5 C-14.35261084 3.5393715 -13.10551666 3 -10 3 C-10 2.34 -10 1.68 -10 1 C-6.41687463 -1.34281274 -4.0803831 -0.97574378 0 0 Z " fill="#BACDCE" transform="translate(252,280)"/>
<path d="M0 0 C1.32451172 0.02707031 1.32451172 0.02707031 2.67578125 0.0546875 C3.67158203 0.08949219 3.67158203 0.08949219 4.6875 0.125 C-1.46783101 3.57198537 -7.5289447 4.43656668 -14.4375 4.3125 C-15.12714844 4.31185547 -15.81679687 4.31121094 -16.52734375 4.31054688 C-20.23993505 4.27860297 -23.70283053 4.00283791 -27.3125 3.125 C-27.3125 2.795 -27.3125 2.465 -27.3125 2.125 C-26.14332031 2.14820313 -24.97414062 2.17140625 -23.76953125 2.1953125 C-22.22136058 2.21407821 -20.67318297 2.23227755 -19.125 2.25 C-18.35607422 2.26675781 -17.58714844 2.28351563 -16.79492188 2.30078125 C-10.79658533 2.35226912 -5.90683265 -0.15751554 0 0 Z " fill="#B9DCDD" transform="translate(235.3125,297.875)"/>
<path d="M0 0 C0.99 0.33 1.98 0.66 3 1 C2.01 1.33 1.02 1.66 0 2 C0 3.32 0 4.64 0 6 C-0.66 6 -1.32 6 -2 6 C-2.41572266 6.85851562 -2.41572266 6.85851562 -2.83984375 7.734375 C-3.98856794 9.97767477 -5.23413994 12.10876289 -6.5625 14.25 C-6.99691406 14.95640625 -7.43132812 15.6628125 -7.87890625 16.390625 C-8.43384766 17.18726563 -8.43384766 17.18726563 -9 18 C-9.33 18 -9.66 18 -10 18 C-10.42501589 13.52530443 -9.32630894 11.44804564 -6.6875 7.875 C-6.07261719 7.02679688 -5.45773438 6.17859375 -4.82421875 5.3046875 C-3.30598957 3.38658211 -1.77768725 1.67376092 0 0 Z " fill="#6DA2A1" transform="translate(202,228)"/>
<path d="M0 0 C3.875 1.875 3.875 1.875 5 3 C7.68862664 3.39993686 10.36352217 3.75134543 13.0625 4.0625 C13.82111328 4.15337891 14.57972656 4.24425781 15.36132812 4.33789062 C17.2404301 4.5624374 19.12016095 4.78170978 21 5 C21 5.33 21 5.66 21 6 C19.25181409 6.22304441 17.50129677 6.4278645 15.75 6.625 C14.77546875 6.74101562 13.8009375 6.85703125 12.796875 6.9765625 C9.86570607 7.00112537 8.45471036 6.5312717 6 5 C5.67 5.66 5.34 6.32 5 7 C5 6.34 5 5.68 5 5 C2.03 5 -0.94 5 -4 5 C-4 4.67 -4 4.34 -4 4 C-2.35 4 -0.7 4 1 4 C0.67 2.68 0.34 1.36 0 0 Z " fill="#658E94" transform="translate(132,289)"/>
<path d="M0 0 C0.020625 0.5775 0.04125 1.155 0.0625 1.75 C1.19191234 4.46058961 1.95694265 4.68946738 4.5 6 C7.89583333 7.75 7.89583333 7.75 8.9375 10.25 C8.958125 10.8275 8.97875 11.405 9 12 C8.34 12 7.68 12 7 12 C7 11.34 7 10.68 7 10 C6.195625 9.87625 5.39125 9.7525 4.5625 9.625 C3.716875 9.41875 2.87125 9.2125 2 9 C1.67 8.34 1.34 7.68 1 7 C0.01 8.32 -0.98 9.64 -2 11 C-2.05399736 9.54207116 -2.09279177 8.08357288 -2.125 6.625 C-2.15980469 5.40683594 -2.15980469 5.40683594 -2.1953125 4.1640625 C-2 2 -2 2 0 0 Z " fill="#97D8DC" transform="translate(133,274)"/>
<path d="M0 0 C0.99 1.32 1.98 2.64 3 4 C2.67 4.66 2.34 5.32 2 6 C2.24627826 8.35222295 2.24627826 8.35222295 2.8125 10.9375 C3.06966797 12.25041016 3.06966797 12.25041016 3.33203125 13.58984375 C3.9292769 16.23226898 3.9292769 16.23226898 6 19 C3.625 18.375 3.625 18.375 1 17 C-1.41695741 12.28117839 -1.44724155 7.20048314 -1 2 C-0.67 1.34 -0.34 0.68 0 0 Z " fill="#8AA0A5" transform="translate(107,226)"/>
<path d="M0 0 C1.45823212 -0.0270043 2.91660675 -0.04639787 4.375 -0.0625 C5.18710938 -0.07410156 5.99921875 -0.08570313 6.8359375 -0.09765625 C9 0 9 0 11 1 C11 1.99 11 2.98 11 4 C3.375 5.25 3.375 5.25 0 3 C0 2.01 0 1.02 0 0 Z " fill="#517380" transform="translate(135,299)"/>
<path d="M0 0 C1.9375 0.3125 1.9375 0.3125 4 1 C4.33 1.99 4.66 2.98 5 4 C3.66666667 5.33333333 2.33333333 6.66666667 1 8 C-1.625 7.625 -1.625 7.625 -4 7 C-4 6.34 -4 5.68 -4 5 C-3.34 4.67 -2.68 4.34 -2 4 C-0.86649466 1.98330173 -0.86649466 1.98330173 0 0 Z " fill="#C7D5D8" transform="translate(122,241)"/>
<path d="M0 0 C-0.33 0.99 -0.66 1.98 -1 3 C-0.34 3.66 0.32 4.32 1 5 C-0.98 5.99 -0.98 5.99 -3 7 C-6 3.375 -6 3.375 -6 0 C-2.25 -1.125 -2.25 -1.125 0 0 Z M-9 5 C-7.68 5 -6.36 5 -5 5 C-5 5.66 -5 6.32 -5 7 C-6.65 7.33 -8.3 7.66 -10 8 C-9.67 7.01 -9.34 6.02 -9 5 Z " fill="#EEF8F6" transform="translate(199,217)"/>
<path d="M0 0 C0.66 0.33 1.32 0.66 2 1 C2 1.66 2 2.32 2 3 C3.65 3.33 5.3 3.66 7 4 C7 4.66 7 5.32 7 6 C7.66 6 8.32 6 9 6 C9 6.66 9 7.32 9 8 C8.01 8 7.02 8 6 8 C6 7.34 6 6.68 6 6 C3.13275314 6.57344937 2.1385485 6.8614515 0 9 C-1.125 2.25 -1.125 2.25 0 0 Z " fill="#C9E7E6" transform="translate(133,280)"/>
<path d="M0 0 C0.99 0.33 1.98 0.66 3 1 C5.14353738 7.18928675 5.2477693 13.00267066 5.125 19.5 C5.11597656 20.4178125 5.10695313 21.335625 5.09765625 22.28125 C5.07432432 24.52111556 5.04159235 26.76041183 5 29 C4.67 29 4.34 29 4 29 C3.96261719 27.74445313 3.92523438 26.48890625 3.88671875 25.1953125 C3.45930141 12.33343301 3.45930141 12.33343301 0 0 Z " fill="#DDF5F5" transform="translate(330,236)"/>
<path d="M0 0 C0.90105469 0.02707031 1.80210937 0.05414063 2.73046875 0.08203125 C3.76107422 0.13423828 3.76107422 0.13423828 4.8125 0.1875 C4.4825 1.1775 4.1525 2.1675 3.8125 3.1875 C-0.5039922 3.94923392 -3.93183453 4.34813604 -8.1875 3.1875 C-5.67753317 0.01043235 -3.96125134 -0.15433447 0 0 Z " fill="#437680" transform="translate(160.1875,226.8125)"/>
<path d="M0 0 C1.32 0 2.64 0 4 0 C3.71872579 1.48117801 3.42466268 2.95993249 3.125 4.4375 C2.96257812 5.26121094 2.80015625 6.08492188 2.6328125 6.93359375 C2.42398438 7.61550781 2.21515625 8.29742187 2 9 C1.01 9.495 1.01 9.495 0 10 C-2.14915785 6.77626323 -2.38286803 5.73296326 -2 2 C-1.34 1.34 -0.68 0.68 0 0 Z " fill="#97B3BB" transform="translate(125,281)"/>
<path d="M0 0 C0 0.66 0 1.32 0 2 C-13.91071429 5.66071429 -13.91071429 5.66071429 -20 4 C-20 3.67 -20 3.34 -20 3 C-18.66195312 2.80083984 -18.66195312 2.80083984 -17.296875 2.59765625 C-16.12640625 2.42105469 -14.9559375 2.24445313 -13.75 2.0625 C-12.00976562 1.80146484 -12.00976562 1.80146484 -10.234375 1.53515625 C-7.15061748 1.07154914 -7.15061748 1.07154914 -4.765625 0.43359375 C-3 0 -3 0 0 0 Z " fill="#2E7074" transform="translate(239,299)"/>
<path d="M0 0 C0.66 0.33 1.32 0.66 2 1 C0.20049043 3.58391118 -1.61317961 5.93418366 -4 8 C-7.875 8.4375 -7.875 8.4375 -11 8 C-9.66566859 5.33133717 -8.11620897 4.82425634 -5.5 3.4375 C-2.55848713 1.98363365 -2.55848713 1.98363365 0 0 Z " fill="#5C8386" transform="translate(251,291)"/>
<path d="M0 0 C1.68375165 0.62225605 3.35767228 1.27544365 5 2 C4.34 2.66 3.68 3.32 3 4 C-1.58537549 3.74525692 -4.58661647 3.14031285 -8 0 C-5.08249759 -1.45875121 -3.14485878 -0.67830287 0 0 Z " fill="#2B7279" transform="translate(203,298)"/>
<path d="M0 0 C1.32 0 2.64 0 4 0 C4.66 3.3 5.32 6.6 6 10 C3.75 12.0625 3.75 12.0625 1 14 C-1.3125 13.75 -1.3125 13.75 -3 13 C-2.01 12.67 -1.02 12.34 0 12 C0.33 11.34 0.66 10.68 1 10 C1.99 10 2.98 10 4 10 C2.99806563 6.20696275 2.18975773 3.28463659 0 0 Z " fill="#ADC7D0" transform="translate(153,268)"/>
<path d="M0 0 C9.9 0.33 19.8 0.66 30 1 C30 1.33 30 1.66 30 2 C20.1 2.33 10.2 2.66 0 3 C0 2.01 0 1.02 0 0 Z " fill="#3A808B" transform="translate(194,265)"/>
<path d="M0 0 C0.66 0.33 1.32 0.66 2 1 C2 1.99 2 2.98 2 4 C-0.84498177 5.97568178 -3.88256767 7.49901406 -7 9 C-6.82374165 6.62051228 -6.30280227 5.29774151 -4.59765625 3.62109375 C-3.09350908 2.37884514 -1.54870149 1.18623944 0 0 Z " fill="#5E8F92" transform="translate(296,228)"/>
<path d="M0 0 C2.24940295 -0.08119503 4.49964871 -0.13927819 6.75 -0.1875 C8.00296875 -0.22230469 9.2559375 -0.25710937 10.546875 -0.29296875 C14.14109357 0.01197061 15.44725126 0.54394629 18 3 C17.01 3.495 17.01 3.495 16 4 C13.375 3.0625 13.375 3.0625 11 2 C10.67 2.66 10.34 3.32 10 4 C9.01 3.67 8.02 3.34 7 3 C7 2.34 7 1.68 7 1 C4.69 1 2.38 1 0 1 C0 0.67 0 0.34 0 0 Z " fill="#367E83" transform="translate(303,225)"/>
<path d="M0 0 C0.99 0.33 1.98 0.66 3 1 C2.34 1.66 1.68 2.32 1 3 C1.33 3.66 1.66 4.32 2 5 C1.01 6.485 1.01 6.485 0 8 C-1.98 7.34 -3.96 6.68 -6 6 C-4 4 -2 2 0 0 Z " fill="#DBE9E9" transform="translate(292,214)"/>
<path d="M0 0 C1.6415049 3.2830098 0.51888624 6.42545033 0 10 C1.32 10.66 2.64 11.32 4 12 C3.34 12.66 2.68 13.32 2 14 C-0.125 13.625 -0.125 13.625 -2 13 C-2.05416188 11.39620659 -2.09286638 9.79188594 -2.125 8.1875 C-2.14820313 7.29417969 -2.17140625 6.40085938 -2.1953125 5.48046875 C-2 3 -2 3 0 0 Z " fill="#21868B" transform="translate(361,203)"/>
<path d="M0 0 C7.92 0 15.84 0 24 0 C24 0.33 24 0.66 24 1 C13.605 1.495 13.605 1.495 3 2 C2.34 3.32 1.68 4.64 1 6 C0.67 4.02 0.34 2.04 0 0 Z " fill="#4A9294" transform="translate(191,264)"/>
<path d="M0 0 C1.22589844 0.01353516 1.22589844 0.01353516 2.4765625 0.02734375 C3.41628906 0.04474609 3.41628906 0.04474609 4.375 0.0625 C4.705 0.7225 5.035 1.3825 5.375 2.0625 C3.9172647 2.398439 2.45878894 2.73116624 1 3.0625 C-0.21816406 3.3409375 -0.21816406 3.3409375 -1.4609375 3.625 C-3.625 4.0625 -3.625 4.0625 -5.625 4.0625 C-5.955 3.0725 -6.285 2.0825 -6.625 1.0625 C-4.21954362 -0.14022819 -2.67503047 -0.03821472 0 0 Z " fill="#28757A" transform="translate(219.625,222.9375)"/>
<path d="M0 0 C1.32 0 2.64 0 4 0 C5.23076923 6.4 5.23076923 6.4 4.0625 9.4375 C3.711875 9.953125 3.36125 10.46875 3 11 C2.67 11 2.34 11 2 11 C2 8.69 2 6.38 2 4 C1.34 4 0.68 4 0 4 C0 2.68 0 1.36 0 0 Z " fill="#7DDDE0" transform="translate(402,205)"/>
<path d="M0 0 C0 0.99 0 1.98 0 3 C1.5778125 2.9690625 1.5778125 2.9690625 3.1875 2.9375 C6.32704904 2.98896802 8.96883396 3.26517187 12 4 C12 4.33 12 4.66 12 5 C-1.6332574 4.22095672 -1.6332574 4.22095672 -8 2 C-4.77208445 -0.1519437 -3.71599191 -0.20086443 0 0 Z " fill="#19515B" transform="translate(211,301)"/>
<path d="M0 0 C0.33 0 0.66 0 1 0 C1.35471906 3.07423183 1.52666346 5.94008528 1 9 C-3.48780488 13 -3.48780488 13 -7 13 C-7 12.34 -7 11.68 -7 11 C-6.01 11 -5.02 11 -4 11 C-2.50859979 7.37802806 -1.2125738 3.72433382 0 0 Z " fill="#ABC4C4" transform="translate(163,280)"/>
<path d="M0 0 C2.31 0 4.62 0 7 0 C7.33 0.99 7.66 1.98 8 3 C5.525 4.485 5.525 4.485 3 6 C1.5 4.6875 1.5 4.6875 0 3 C0 2.01 0 1.02 0 0 Z " fill="#F1F9F6" transform="translate(208,211)"/>
<path d="M0 0 C4.29 0.66 8.58 1.32 13 2 C12.67 2.66 12.34 3.32 12 4 C8.04 3.67 4.08 3.34 0 3 C0 2.01 0 1.02 0 0 Z " fill="#296F77" transform="translate(211,301)"/>
<path d="M0 0 C0.66 0 1.32 0 2 0 C2 0.66 2 1.32 2 2 C3.98 2.66 5.96 3.32 8 4 C8 4.99 8 5.98 8 7 C6.68 7 5.36 7 4 7 C4 6.34 4 5.68 4 5 C2.68 4.34 1.36 3.68 0 3 C0 2.01 0 1.02 0 0 Z " fill="#CAE3E5" transform="translate(200,281)"/>
<path d="M0 0 C0.556875 0.226875 1.11375 0.45375 1.6875 0.6875 C-2.01198187 4.29889896 -2.01198187 4.29889896 -4.3125 5.6875 C-7.6875 5.5 -7.6875 5.5 -10.3125 4.6875 C-9.3225 4.0275 -8.3325 3.3675 -7.3125 2.6875 C-6.508125 2.130625 -5.70375 1.57375 -4.875 1 C-2.3125 -0.3125 -2.3125 -0.3125 0 0 Z " fill="#4F7D7C" transform="translate(250.3125,258.3125)"/>
<path d="M0 0 C0.66 0.33 1.32 0.66 2 1 C2 3.64 2 6.28 2 9 C1.01 8.67 0.02 8.34 -1 8 C-1.33 5.69 -1.66 3.38 -2 1 C-1.34 0.67 -0.68 0.34 0 0 Z " fill="#546B7B" transform="translate(138,243)"/>
<path d="M0 0 C1.231394 3.69418201 0.64432764 6.2056261 0 10 C-0.99 9.67 -1.98 9.34 -3 9 C-3.36923077 3.46153846 -3.36923077 3.46153846 -1.5 1.125 C-1.005 0.75375 -0.51 0.3825 0 0 Z M-4 10 C-2 11 -2 11 -2 11 Z " fill="#ECF7F8" transform="translate(190,244)"/>
<path d="M0 0 C8.19256018 -0.63019694 8.19256018 -0.63019694 11.5625 2 C12.036875 2.66 12.51125 3.32 13 4 C12.01 4.495 12.01 4.495 11 5 C10.34 4.67 9.68 4.34 9 4 C9 3.34 9 2.68 9 2 C6.03 2 3.06 2 0 2 C0 1.34 0 0.68 0 0 Z " fill="#89CFD3" transform="translate(392,201)"/>
<path d="M0 0 C5.94 0 11.88 0 18 0 C17.67 1.32 17.34 2.64 17 4 C16.34 3.34 15.68 2.68 15 2 C12.41935871 1.85502015 9.95056116 1.81322455 7.375 1.875 C6.66859375 1.88402344 5.9621875 1.89304687 5.234375 1.90234375 C3.48943902 1.92592397 1.74467705 1.96179539 0 2 C0 1.34 0 0.68 0 0 Z " fill="#317479" transform="translate(331,302)"/>
<path d="M0 0 C1.25 2.5625 1.25 2.5625 2 5 C1.01 5.33 0.02 5.66 -1 6 C-1.33 5.01 -1.66 4.02 -2 3 C-5.3 2.34 -8.6 1.68 -12 1 C-12 0.67 -12 0.34 -12 0 C-2.61452514 -1.40782123 -2.61452514 -1.40782123 0 0 Z " fill="#8AA9B2" transform="translate(148,276)"/>
<path d="M0 0 C0.99 0.33 1.98 0.66 3 1 C3 2.98 3 4.96 3 7 C2.67 6.34 2.34 5.68 2 5 C-1.02934491 4.34227572 -1.02934491 4.34227572 -4 4 C-4 3.01 -4 2.02 -4 1 C-3.01 1.33 -2.02 1.66 -1 2 C-0.67 1.34 -0.34 0.68 0 0 Z " fill="#A6BAC2" transform="translate(139,265)"/>
<path d="M0 0 C2.1640625 -0.29296875 2.1640625 -0.29296875 4.625 -0.1875 C5.44226563 -0.16042969 6.25953125 -0.13335937 7.1015625 -0.10546875 C8.04128906 -0.05326172 8.04128906 -0.05326172 9 0 C9 0.99 9 1.98 9 3 C5.37 3 1.74 3 -2 3 C-1.34 2.01 -0.68 1.02 0 0 Z " fill="#226B73" transform="translate(134,223)"/>
<path d="M0 0 C0.66 0 1.32 0 2 0 C2.33 1.98 2.66 3.96 3 6 C3.99 6.33 4.98 6.66 6 7 C6 7.66 6 8.32 6 9 C4.35 9.33 2.7 9.66 1 10 C0.67 6.7 0.34 3.4 0 0 Z " fill="#728692" transform="translate(134,245)"/>
<path d="M0 0 C1.4943899 2.98877979 0.91874257 4.85002546 0 8 C-2.5625 9.375 -2.5625 9.375 -5 10 C-3.66511872 6.40608886 -2.03977277 3.24509304 0 0 Z " fill="#B1C9C7" transform="translate(183,227)"/>
<path d="M0 0 C0.928125 0.165 1.85625 0.33 2.8125 0.5 C5.95621353 1.07748388 5.95621353 1.07748388 9 1 C9 1.66 9 2.32 9 3 C6.09399739 4.25664978 4.20395416 5 1 5 C0.67 3.35 0.34 1.7 0 0 Z " fill="#CEDFE0" transform="translate(148,280)"/>
<path d="M0 0 C0.66 0.33 1.32 0.66 2 1 C1.67 3.31 1.34 5.62 1 8 C-0.65 8 -2.3 8 -4 8 C-3.525625 7.236875 -3.05125 6.47375 -2.5625 5.6875 C-0.89893903 3.03589452 -0.89893903 3.03589452 0 0 Z " fill="#C4CFD7" transform="translate(144,235)"/>
<path d="M0 0 C0.33 0.99 0.66 1.98 1 3 C0.01 4.485 0.01 4.485 -1 6 C-1.39013716 7.9896995 -1.73202649 9.99019869 -2 12 C-2.33 12 -2.66 12 -3 12 C-3.33 8.7 -3.66 5.4 -4 2 C-2.68 1.34 -1.36 0.68 0 0 Z " fill="#B9CED0" transform="translate(288,235)"/>
<path d="M0 0 C0.19622241 4.21878192 -0.19769832 7.17010894 -2 11 C-2.33 11 -2.66 11 -3 11 C-4.35064935 3.51003542 -4.35064935 3.51003542 -2.625 1 C-1 0 -1 0 0 0 Z " fill="#308890" transform="translate(376,189)"/>
<path d="M0 0 C2.25 0.125 2.25 0.125 5 1 C7.3125 4.0625 7.3125 4.0625 9 7 C5.56072421 5.7580393 2.74792181 4.44259716 0 2 C0 1.34 0 0.68 0 0 Z " fill="#3F737A" transform="translate(141,262)"/>
<path d="M0 0 C0.66 0 1.32 0 2 0 C2 0.66 2 1.32 2 2 C3.65 2 5.3 2 7 2 C7.33 3.32 7.66 4.64 8 6 C6.68 6.33 5.36 6.66 4 7 C2.02 3.535 2.02 3.535 0 0 Z " fill="#CAE4E3" transform="translate(109,239)"/>
<path d="M0 0 C0.66 0.33 1.32 0.66 2 1 C1.25 2.9375 1.25 2.9375 0 5 C-1.33333333 5.33333333 -2.66666667 5.66666667 -4 6 C-5.28436734 7.9837767 -5.28436734 7.9837767 -6 10 C-6 6.41087588 -5.33563446 5.89142971 -3 3.3125 C-2.443125 2.68988281 -1.88625 2.06726563 -1.3125 1.42578125 C-0.879375 0.95527344 -0.44625 0.48476562 0 0 Z " fill="#B8CCCE" transform="translate(115,215)"/>
<path d="M0 0 C5.28 0 10.56 0 16 0 C15.34 1.32 14.68 2.64 14 4 C13.34 3.34 12.68 2.68 12 2 C9.10776497 1.53603307 9.10776497 1.53603307 5.875 1.375 C4.23144531 1.26285156 4.23144531 1.26285156 2.5546875 1.1484375 C1.71164062 1.09945313 0.86859375 1.05046875 0 1 C0 0.67 0 0.34 0 0 Z " fill="#45787C" transform="translate(378,302)"/>
<path d="M0 0 C0.103125 0.61875 0.20625 1.2375 0.3125 1.875 C0.87525373 4.36526484 0.87525373 4.36526484 4 6 C2.68 6 1.36 6 0 6 C-0.33 7.65 -0.66 9.3 -1 11 C-1.33 11 -1.66 11 -2 11 C-2.05399736 9.54207116 -2.09279177 8.08357288 -2.125 6.625 C-2.15980469 5.40683594 -2.15980469 5.40683594 -2.1953125 4.1640625 C-2 2 -2 2 0 0 Z " fill="#A8C4C8" transform="translate(133,274)"/>
<path d="M0 0 C0 0.99 0 1.98 0 3 C-2.64 3.66 -5.28 4.32 -8 5 C-7.67 3.68 -7.34 2.36 -7 1 C-4 0 -4 0 0 0 Z " fill="#D2E4ED" transform="translate(141,273)"/>
<path d="M0 0 C3.465 1.485 3.465 1.485 7 3 C6.67 4.32 6.34 5.64 6 7 C5.01 6.67 4.02 6.34 3 6 C3 5.01 3 4.02 3 3 C2.01 3 1.02 3 0 3 C0 2.01 0 1.02 0 0 Z " fill="#336775" transform="translate(127,254)"/>
<path d="M0 0 C2.64 0.33 5.28 0.66 8 1 C7.67 2.32 7.34 3.64 7 5 C4.69 4.34 2.38 3.68 0 3 C0 2.01 0 1.02 0 0 Z " fill="#226D77" transform="translate(314,227)"/>
<path d="M0 0 C0.66 0.33 1.32 0.66 2 1 C2.40729228 3.32156597 2.74438677 5.6568787 3 8 C1.35 8.33 -0.3 8.66 -2 9 C-1.505 7.6078125 -1.505 7.6078125 -1 6.1875 C0.14967004 3.07970709 0.14967004 3.07970709 0 0 Z " fill="#C9DCE1" transform="translate(163,218)"/>
<path d="M0 0 C2.97 0.495 2.97 0.495 6 1 C5.01 1.495 5.01 1.495 4 2 C4.33 3.32 4.66 4.64 5 6 C2.69 5.01 0.38 4.02 -2 3 C-1.34 2.01 -0.68 1.02 0 0 Z " fill="#90A8B3" transform="translate(137,260)"/>
<path d="M0 0 C1.77007714 -0.08114106 3.54122098 -0.13925505 5.3125 -0.1875 C6.29863281 -0.22230469 7.28476563 -0.25710937 8.30078125 -0.29296875 C11 0 11 0 12.85546875 1.51171875 C13.23316406 2.00285156 13.61085937 2.49398437 14 3 C12.02 3.33 10.04 3.66 8 4 C8.33 3.34 8.66 2.68 9 2 C6.03 1.67 3.06 1.34 0 1 C0 0.67 0 0.34 0 0 Z " fill="#529599" transform="translate(215,222)"/>
<path d="M0 0 C1.51400391 0.01740234 1.51400391 0.01740234 3.05859375 0.03515625 C4.07050781 0.04417969 5.08242187 0.05320313 6.125 0.0625 C7.29869141 0.07990234 7.29869141 0.07990234 8.49609375 0.09765625 C7.17609375 1.08765625 5.85609375 2.07765625 4.49609375 3.09765625 C4.16609375 2.43765625 3.83609375 1.77765625 3.49609375 1.09765625 C0.03109375 2.58265625 0.03109375 2.58265625 -3.50390625 4.09765625 C-3.50390625 0.13665781 -3.50390625 0.13665781 0 0 Z " fill="#EBF9F9" transform="translate(128.50390625,210.90234375)"/>
<path d="M0 0 C0.33 0.99 0.66 1.98 1 3 C1.66 3 2.32 3 3 3 C2.67 4.32 2.34 5.64 2 7 C1.34 7 0.68 7 0 7 C-0.33 8.32 -0.66 9.64 -1 11 C-1.125 3.375 -1.125 3.375 0 0 Z " fill="#52CBCA" transform="translate(362,202)"/>
<path d="M0 0 C1.32 0.33 2.64 0.66 4 1 C3.67 1.66 3.34 2.32 3 3 C2.34 2.67 1.68 2.34 1 2 C0.566875 2.928125 0.566875 2.928125 0.125 3.875 C-1 6 -1 6 -3 8 C-3.33 7.01 -3.66 6.02 -4 5 C-3.34 4.67 -2.68 4.34 -2 4 C-0.86649466 1.98330173 -0.86649466 1.98330173 0 0 Z " fill="#D2DEE0" transform="translate(122,241)"/>
<path d="M0 0 C0.75 1.5625 0.75 1.5625 1 4 C-0.13084437 6.50286409 -1.52139516 8.67007722 -3 11 C-3.33 11 -3.66 11 -4 11 C-4.56638908 6.18569279 -2.82561627 3.79692186 0 0 Z " fill="#8CB1B6" transform="translate(196,235)"/>
<path d="M0 0 C0.99 0.33 1.98 0.66 3 1 C3 3.64 3 6.28 3 9 C2.67 8.01 2.34 7.02 2 6 C1.01 5.67 0.02 5.34 -1 5 C-0.67 3.35 -0.34 1.7 0 0 Z " fill="#7ED4D7" transform="translate(390,219)"/>
<path d="M0 0 C1.32 0 2.64 0 4 0 C4.66 1.65 5.32 3.3 6 5 C3.36 4.34 0.72 3.68 -2 3 C-1.34 2.67 -0.68 2.34 0 2 C0 1.34 0 0.68 0 0 Z " fill="#22636C" transform="translate(145,224)"/>
<path d="M0 0 C-6.4 4.06153846 -6.4 4.06153846 -9.4375 3.75 C-9.953125 3.5025 -10.46875 3.255 -11 3 C-9.68 2.67 -8.36 2.34 -7 2 C-7 1.34 -7 0.68 -7 0 C-2.25 -1.125 -2.25 -1.125 0 0 Z " fill="#2F5D65" transform="translate(246,299)"/>
<path d="M0 0 C2.12038635 2.61514317 4.13091744 5.19637616 6 8 C4.35 7.67 2.7 7.34 1 7 C0.67 4.69 0.34 2.38 0 0 Z " fill="#50908F" transform="translate(181,279)"/>
<path d="M0 0 C1.258125 -0.04125 2.51625 -0.0825 3.8125 -0.125 C4.52019531 -0.14820313 5.22789062 -0.17140625 5.95703125 -0.1953125 C8 0 8 0 11 2 C10.67 3.32 10.34 4.64 10 6 C9.46375 5.360625 8.9275 4.72125 8.375 4.0625 C5.55632807 1.61470596 3.66139268 1.33285388 0 1 C0 0.67 0 0.34 0 0 Z " fill="#267076" transform="translate(136,277)"/>
<path d="M0 0 C2.31 0 4.62 0 7 0 C7.33 0.66 7.66 1.32 8 2 C7.34 2 6.68 2 6 2 C5.67 2.66 5.34 3.32 5 4 C4.01 3.34 3.02 2.68 2 2 C1.67 2.33 1.34 2.66 1 3 C0.34 2.67 -0.32 2.34 -1 2 C-0.67 1.34 -0.34 0.68 0 0 Z " fill="#B6C8CD" transform="translate(136,233)"/>
<path d="M0 0 C0.33 1.32 0.66 2.64 1 4 C0.01 4.33 -0.98 4.66 -2 5 C-2 4.34 -2 3.68 -2 3 C-3.65 2.67 -5.3 2.34 -7 2 C-4 0 -4 0 0 0 Z " fill="#2C8289" transform="translate(385,233)"/>
<path d="M0 0 C4.7517398 0.43197635 6.92000054 1.32769295 10 5 C5.2482602 4.56802365 3.07999946 3.67230705 0 0 Z " fill="#185963" transform="translate(373,232)"/>
<path d="M0 0 C1.65 0.33 3.3 0.66 5 1 C5 1.99 5 2.98 5 4 C5.99 4 6.98 4 8 4 C7.67 4.66 7.34 5.32 7 6 C4.36 4.68 1.72 3.36 -1 2 C-0.67 1.34 -0.34 0.68 0 0 Z " fill="#1E556A" transform="translate(122,253)"/>
<path d="M0 0 C3.465 1.98 3.465 1.98 7 4 C6.34 4.66 5.68 5.32 5 6 C4.01 6 3.02 6 2 6 C1.34 4.02 0.68 2.04 0 0 Z " fill="#41848C" transform="translate(192,292)"/>
<path d="M0 0 C0.66 0 1.32 0 2 0 C1.67 1.32 1.34 2.64 1 4 C0.34 4 -0.32 4 -1 4 C-1 4.66 -1 5.32 -1 6 C-1.99 6.33 -2.98 6.66 -4 7 C-4.66 6.34 -5.32 5.68 -6 5 C-5.195625 4.54625 -4.39125 4.0925 -3.5625 3.625 C-0.91143428 2.25274335 -0.91143428 2.25274335 0 0 Z " fill="#486A6D" transform="translate(164,287)"/>
<path d="M0 0 C2.475 0.495 2.475 0.495 5 1 C5.66 3.31 6.32 5.62 7 8 C5 7 5 7 4 4 C2.70644173 2.62804426 1.37701298 1.28817344 0 0 Z " fill="#54C2C3" transform="translate(137,279)"/>
<path d="M0 0 C0.66 0 1.32 0 2 0 C3.33333333 2.66666667 4.66666667 5.33333333 6 8 C3.5625 7.375 3.5625 7.375 1 6 C0.1875 2.875 0.1875 2.875 0 0 Z " fill="#5C878B" transform="translate(107,237)"/>
<path d="M0 0 C2.0625 2.25 2.0625 2.25 4 5 C3.75 7.3125 3.75 7.3125 3 9 C0.9375 6.75 0.9375 6.75 -1 4 C-0.75 1.6875 -0.75 1.6875 0 0 Z " fill="#529A9E" transform="translate(328,234)"/>
<path d="M0 0 C0.66 0 1.32 0 2 0 C2 2 2 2 -0.375 4.5 C-1.24125 5.325 -2.1075 6.15 -3 7 C-3.66 7.66 -4.32 8.32 -5 9 C-4.67 7.35 -4.34 5.7 -4 4 C-3.34 4 -2.68 4 -2 4 C-1.34 2.68 -0.68 1.36 0 0 Z " fill="#6C9A9D" transform="translate(127,223)"/>
<path d="M0 0 C0 0.66 0 1.32 0 2 C-3.66305234 2.74926071 -6.42355152 3.2380014 -10 2 C-3.375 0 -3.375 0 0 0 Z " fill="#5C8A8D" transform="translate(239,299)"/>
<path d="M0 0 C0.66 0.66 1.32 1.32 2 2 C1.01 2.66 0.02 3.32 -1 4 C-1 3.34 -1 2.68 -1 2 C-4.3 2 -7.6 2 -11 2 C-11 1.67 -11 1.34 -11 1 C-9.20991533 0.77848451 -7.41781838 0.57317787 -5.625 0.375 C-4.62726563 0.25898438 -3.62953125 0.14296875 -2.6015625 0.0234375 C-1.74304688 0.01570312 -0.88453125 0.00796875 0 0 Z " fill="#469299" transform="translate(403,215)"/>
<path d="M0 0 C1.65 0.33 3.3 0.66 5 1 C5 1.66 5 2.32 5 3 C2.625 3.625 2.625 3.625 0 4 C-0.66 3.34 -1.32 2.68 -2 2 C-1.34 2 -0.68 2 0 2 C0 1.34 0 0.68 0 0 Z " fill="#F0F7F7" transform="translate(146,212)"/>
<path d="M0 0 C1.32 0.33 2.64 0.66 4 1 C3.34 2.32 2.68 3.64 2 5 C0.68 4.34 -0.64 3.68 -2 3 C-1.34 2.01 -0.68 1.02 0 0 Z " fill="#F4FAF9" transform="translate(227,211)"/>
</svg>
